<svg height="54.204" viewBox="0 0 54.583 54.204" width="54.583" xmlns="http://www.w3.org/2000/svg"><path d="m328.533 285.65c0 1.08-1.713 2.046-1.839 3.092-.128 1.069 1.3 2.414 1.051 3.44-.256 1.043-2.151 1.571-2.526 2.561s.686 2.653.192 3.592-2.463 1-3.068 1.878.033 2.737-.674 3.534-2.63.385-3.428 1.093-.617 2.664-1.5 3.272-2.642-.254-3.589.244-1.234 2.438-2.235 2.818-2.5-.883-3.542-.626c-1.026.252-1.779 2.069-2.848 2.2-1.046.126-2.209-1.458-3.289-1.458s-2.243 1.584-3.289 1.458c-1.069-.128-1.823-1.945-2.848-2.2-1.043-.256-2.552 1-3.543.626s-1.3-2.324-2.235-2.818-2.715.361-3.589-.244-.7-2.565-1.5-3.272-2.72-.295-3.427-1.093-.066-2.655-.674-3.534-2.57-.932-3.068-1.878.572-2.591.192-3.592-2.27-1.518-2.526-2.561c-.252-1.026 1.18-2.371 1.051-3.44-.126-1.046-1.838-2.012-1.838-3.092s1.713-2.046 1.838-3.092c.129-1.069-1.3-2.415-1.051-3.441.256-1.043 2.15-1.571 2.526-2.561s-.686-2.653-.192-3.592 2.464-1 3.068-1.879-.033-2.737.674-3.534 2.629-.385 3.427-1.093.617-2.664 1.5-3.272 2.643.254 3.589-.244 1.234-2.438 2.235-2.819 2.5.883 3.542.626c1.026-.252 1.78-2.068 2.849-2.2 1.046-.126 2.209 1.458 3.289 1.458s2.244-1.583 3.29-1.458c1.069.129 1.822 1.945 2.848 2.2 1.043.256 2.552-1 3.542-.626s1.3 2.324 2.236 2.819 2.714-.361 3.589.244.7 2.565 1.5 3.272 2.72.295 3.428 1.093.066 2.655.673 3.534 2.57.932 3.068 1.879-.572 2.59-.192 3.592 2.27 1.518 2.526 2.561c.252 1.026-1.18 2.372-1.051 3.44.125 1.043 1.838 2.013 1.838 3.093z" fill="#e29e7f" transform="translate(-273.95 -258.548)"/><path d="m-13.138 0h6.76v-1.716h-4.173c.169-.611.429-.9 1.183-1.313l1.313-.7a2.97 2.97 0 0 0 1.755-2.693c0-1.625-1.209-2.613-3.237-2.613a3.094 3.094 0 0 0 -3.406 3.159h2.143c0-.988.455-1.534 1.274-1.534a1.01 1.01 0 0 1 1.068 1.066 1.55 1.55 0 0 1 -.975 1.4l-1.417.744c-1.625.846-2.288 2.068-2.288 4.2zm11.338.195c2.4 0 3.69-1.612 3.69-4.615s-1.29-4.615-3.69-4.615-3.694 1.612-3.694 4.615 1.287 4.615 3.694 4.615zm0-1.69c-1.144 0-1.69-.923-1.69-2.925s.546-2.925 1.69-2.925 1.69.936 1.69 2.925-.548 2.92-1.69 2.92zm10.523-.682a2.282 2.282 0 0 1 .692-1.676 2.286 2.286 0 0 1 1.669-.686 2.275 2.275 0 0 1 1.669.692 2.275 2.275 0 0 1 .692 1.669 2.275 2.275 0 0 1 -.692 1.669 2.275 2.275 0 0 1 -1.669.692 2.275 2.275 0 0 1 -1.669-.691 2.275 2.275 0 0 1 -.692-1.669zm-5.478-2.952a2.275 2.275 0 0 1 -.692-1.671 2.275 2.275 0 0 1 .692-1.669 2.275 2.275 0 0 1 1.669-.691 2.275 2.275 0 0 1 1.669.692 2.275 2.275 0 0 1 .692 1.668 2.28 2.28 0 0 1 -.689 1.669 2.272 2.272 0 0 1 -1.673.692 2.275 2.275 0 0 1 -1.668-.69zm2.666 5.37h-.984l5.148-9.441h.965zm4.462-1.708a.957.957 0 0 0 .711.3.973.973 0 0 0 .714-.3.973.973 0 0 0 .3-.714.973.973 0 0 0 -.3-.714.973.973 0 0 0 -.714-.3.973.973 0 0 0 -.714.3.973.973 0 0 0 -.3.714.957.957 0 0 0 .303.715zm-6.173-4.62a.957.957 0 0 0 .711.3.973.973 0 0 0 .714-.3.973.973 0 0 0 .3-.714.973.973 0 0 0 -.3-.714.973.973 0 0 0 -.714-.3.973.973 0 0 0 -.714.3.973.973 0 0 0 -.3.714.957.957 0 0 0 .303.714zm-11.1 20.347a4.654 4.654 0 0 0 4.865-4.81 4.654 4.654 0 0 0 -4.865-4.81 4.654 4.654 0 0 0 -4.862 4.81 4.654 4.654 0 0 0 4.862 4.81zm0-1.885a2.65 2.65 0 0 1 -2.662-2.925 2.65 2.65 0 0 1 2.662-2.925 2.664 2.664 0 0 1 2.668 2.925 2.664 2.664 0 0 1 -2.668 2.925zm5.957 1.625h2.106v-3.146h3.458v-1.729h-3.458v-2.457h3.458v-1.768h-5.564zm6.9 0h2.109v-3.146h3.458v-1.729h-3.458v-2.457h3.458v-1.768h-5.564z" fill="#fff" transform="translate(25.974 24.842)"/></svg>