<svg xmlns="http://www.w3.org/2000/svg" width="90.871" height="65.926" viewBox="0 0 90.871 65.926"><path d="M62.224,89a1.851,1.851,0,1,1,1.851,1.867A1.859,1.859,0,0,1,62.224,89ZM49.709,89a1.851,1.851,0,1,1,1.851,1.867A1.859,1.859,0,0,1,49.709,89ZM37.37,89a1.851,1.851,0,1,1,1.851,1.867A1.859,1.859,0,0,1,37.37,89ZM24.854,89a1.851,1.851,0,1,1,1.851,1.867A1.859,1.859,0,0,1,24.854,89ZM12.515,89a1.851,1.851,0,1,1,1.851,1.867A1.859,1.859,0,0,1,12.515,89ZM0,89a1.851,1.851,0,1,1,1.851,1.867A1.858,1.858,0,0,1,0,89ZM62.224,76.555a1.851,1.851,0,1,1,1.851,1.867A1.859,1.859,0,0,1,62.224,76.555Zm-12.515,0a1.851,1.851,0,1,1,1.851,1.867A1.859,1.859,0,0,1,49.709,76.555Zm-12.339,0a1.851,1.851,0,1,1,1.851,1.867A1.859,1.859,0,0,1,37.37,76.555Zm-12.515,0a1.851,1.851,0,1,1,1.851,1.867A1.859,1.859,0,0,1,24.854,76.555Zm-12.339,0a1.851,1.851,0,1,1,1.851,1.867A1.859,1.859,0,0,1,12.515,76.555ZM0,76.555a1.851,1.851,0,1,1,1.851,1.867A1.858,1.858,0,0,1,0,76.555ZM62.224,64.107a1.851,1.851,0,1,1,1.851,1.867A1.859,1.859,0,0,1,62.224,64.107Zm-12.515,0a1.851,1.851,0,1,1,1.851,1.867A1.859,1.859,0,0,1,49.709,64.107Zm-12.339,0a1.851,1.851,0,1,1,1.851,1.867A1.859,1.859,0,0,1,37.37,64.107Zm-12.515,0a1.851,1.851,0,1,1,1.851,1.867A1.859,1.859,0,0,1,24.854,64.107Zm-12.339,0a1.851,1.851,0,1,1,1.851,1.867A1.859,1.859,0,0,1,12.515,64.107ZM0,64.107a1.851,1.851,0,1,1,1.851,1.867A1.858,1.858,0,0,1,0,64.107ZM62.224,51.659a1.851,1.851,0,1,1,1.851,1.867A1.86,1.86,0,0,1,62.224,51.659Zm-12.515,0a1.851,1.851,0,1,1,1.851,1.867A1.86,1.86,0,0,1,49.709,51.659Zm-12.339,0a1.851,1.851,0,1,1,1.851,1.867A1.86,1.86,0,0,1,37.37,51.659Zm-12.515,0a1.851,1.851,0,1,1,1.851,1.867A1.86,1.86,0,0,1,24.854,51.659Zm-12.339,0a1.851,1.851,0,1,1,1.851,1.867A1.86,1.86,0,0,1,12.515,51.659ZM0,51.659a1.851,1.851,0,1,1,1.851,1.867A1.859,1.859,0,0,1,0,51.659ZM62.224,39.211a1.851,1.851,0,1,1,1.851,1.867A1.86,1.86,0,0,1,62.224,39.211Zm-12.515,0a1.851,1.851,0,1,1,1.851,1.867A1.86,1.86,0,0,1,49.709,39.211Zm-12.339,0a1.851,1.851,0,1,1,1.851,1.867A1.86,1.86,0,0,1,37.37,39.211Zm-12.515,0a1.851,1.851,0,1,1,1.851,1.867A1.86,1.86,0,0,1,24.854,39.211Zm-12.339,0a1.851,1.851,0,1,1,1.851,1.867A1.86,1.86,0,0,1,12.515,39.211ZM0,39.211a1.851,1.851,0,1,1,1.851,1.867A1.859,1.859,0,0,1,0,39.211ZM62.224,26.763a1.851,1.851,0,1,1,1.851,1.867A1.86,1.86,0,0,1,62.224,26.763Zm-12.515,0a1.851,1.851,0,1,1,1.851,1.867A1.86,1.86,0,0,1,49.709,26.763Zm-12.339,0a1.851,1.851,0,1,1,1.851,1.867A1.86,1.86,0,0,1,37.37,26.763Zm-12.515,0a1.851,1.851,0,1,1,1.851,1.867A1.86,1.86,0,0,1,24.854,26.763Zm-12.339,0a1.851,1.851,0,1,1,1.851,1.867A1.86,1.86,0,0,1,12.515,26.763ZM0,26.763a1.851,1.851,0,1,1,1.851,1.867A1.859,1.859,0,0,1,0,26.763ZM62.224,14.315a1.851,1.851,0,1,1,1.851,1.867A1.86,1.86,0,0,1,62.224,14.315Zm-12.515,0a1.851,1.851,0,1,1,1.851,1.867A1.86,1.86,0,0,1,49.709,14.315Zm-12.339,0a1.851,1.851,0,1,1,1.851,1.867A1.86,1.86,0,0,1,37.37,14.315Zm-12.515,0a1.851,1.851,0,1,1,1.851,1.867A1.86,1.86,0,0,1,24.854,14.315Zm-12.339,0a1.851,1.851,0,1,1,1.851,1.867A1.86,1.86,0,0,1,12.515,14.315ZM0,14.315a1.851,1.851,0,1,1,1.851,1.867A1.859,1.859,0,0,1,0,14.315ZM62.224,1.867a1.851,1.851,0,1,1,1.851,1.867A1.86,1.86,0,0,1,62.224,1.867Zm-12.515,0A1.851,1.851,0,1,1,51.56,3.735,1.86,1.86,0,0,1,49.709,1.867Zm-12.339,0a1.851,1.851,0,1,1,1.851,1.867A1.86,1.86,0,0,1,37.37,1.867Zm-12.515,0a1.851,1.851,0,1,1,1.851,1.867A1.86,1.86,0,0,1,24.854,1.867Zm-12.339,0a1.851,1.851,0,1,1,1.851,1.867A1.86,1.86,0,0,1,12.515,1.867ZM0,1.867A1.851,1.851,0,1,1,1.851,3.735,1.859,1.859,0,0,1,0,1.867Z" transform="translate(90.871) rotate(90)" fill="#ff9695"></path></svg>