<svg height="21.348" viewBox="0 0 75.621 21.348" width="75.621" xmlns="http://www.w3.org/2000/svg"><path d="m-23.838-20.01v20.01h4.35v-8.555c0-2.175 1.218-3.857 3.277-3.857 1.566 0 2.32.928 2.32 2.552v9.86h4.35v-10.179c0-3.712-2.349-5.539-5.481-5.539a5.455 5.455 0 0 0 -4.466 2.088v-6.38zm23.606 20.358c4.466 0 7.018-2.117 7.018-6.061v-9.657h-4.35v9.8a2.482 2.482 0 0 1 -2.668 2.67 2.46 2.46 0 0 1 -2.639-2.668v-9.8h-4.35v9.657c0 3.942 2.552 6.059 6.989 6.059zm9.483-20.358v20.01h4v-2.2a5.358 5.358 0 0 0 4.932 2.548c3.538 0 6.438-2.262 6.438-8.033s-2.9-8.033-6.438-8.033a5.514 5.514 0 0 0 -4.583 2.059v-6.351zm7.627 17.11c-1.885 0-3.364-1.16-3.364-4.785s1.479-4.785 3.364-4.785c2.146 0 3.306 1.305 3.306 4.785 0 3.509-1.189 4.785-3.306 4.785z" fill="#003365" transform="translate(51 21)"/><circle cx="6.5" cy="6.5" fill="#f86b45" r="6.5"/><circle cx="13.5" cy="6.5" fill="#ed6a04" opacity=".316" r="6.5"/></svg>