<svg xmlns="http://www.w3.org/2000/svg" width="51.278" height="37.292" viewBox="0 0 51.278 37.292"><path d="M18.918,18.28c0,1.312-.138,1.968-1.09,1.968-.994,0-1.151-.6-1.151-1.787V7.983H8.961V20.289a7.706,7.706,0,0,0,1.724,5.289,5.761,5.761,0,0,0,4.565,2.077,7.5,7.5,0,0,0,3.842-1.164c-.724,2.744-2.353,4.116-4.8,4.116a8.04,8.04,0,0,1-2.7-.644,14.668,14.668,0,0,1-2.635-1.232v6.393A18.522,18.522,0,0,0,11.6,36.489a11.689,11.689,0,0,0,4.189.8,10.549,10.549,0,0,0,8.082-3.654,11.443,11.443,0,0,0,2.768-8.07V7.983H18.918ZM36.415.094c-9.158.825-8.535,10.618-8.535,10.618V27.837c4.979,0,7.468-2.39,7.468-5.7V19.9H39.02V12.452H35.347v-1a4.142,4.142,0,0,1,.825-2.69,2.724,2.724,0,0,1,2.166-.941c.614.007,1.743.21,1.971,1.1l.017.07v7.764a12.168,12.168,0,0,0,1.692,6.867,9.692,9.692,0,0,0,3.612,3.213,10.184,10.184,0,0,0,4.8,1.182c.188,0,.53-.005.846-.02V20.107c-1.578,0-2.256-.292-2.758-.9a5.477,5.477,0,0,1-.747-3.284h2.688V7.983H47.915C47.436,5,45.648.516,39.011.016c0,0-.786-.03-1.4-.008-.48.017-1.2.086-1.2.086ZM10.325,27.217l.006.012a10.114,10.114,0,0,1-2.614,1.083v.041l-.026-.037a6.3,6.3,0,0,1-1.346.155,5.809,5.809,0,0,1-4.606-2.1A7.776,7.776,0,0,1,0,21.041V.516H7.717V21.041A7.766,7.766,0,0,0,9.45,26.376a6.744,6.744,0,0,0,.875.841Z" fill="#f87397"/></svg>