<svg height="36.687" viewBox="0 0 74.983 36.687" width="74.983" xmlns="http://www.w3.org/2000/svg"><g fill="#5a708c"><path d="m44.824 29.174a31.313 31.313 0 0 0 -7.255 2.591 36.358 36.358 0 0 0 -14.769-3.265 37.578 37.578 0 0 0 -16.22 3.783l-6.58-32.283h44.824m-31.455 8.084h-3.99v11.816h7.979v-2.8h-3.989zm10.934 10c-1.814 0-2.228-.777-2.228-2.953h8.137c0-5.234-1.244-7.411-5.907-7.411-5.078 0-6.426 1.762-6.426 6.322 0 4.457 1.866 6.581 6.167 6.581 4.249 0 5.8-1.555 5.906-3.99h-3.73c-.001.986-.364 1.451-1.922 1.451zm-2.228-5.284c0-1.762.363-2.745 2.073-2.745 1.659 0 2.073.777 2.073 2.745zm12.592-4.716h-4.353l4.509 11.816h4.923l4.612-11.816h-4.25l-2.745 7.716z"/><path d="m46.656 0h30.211l-7.1 32.284a27.576 27.576 0 0 0 -15.079-3.835 42.916 42.916 0 0 0 -8.032.725m.725-21.142v11.868h3.886v-11.868zm6.84.777-.207 1.191c1.244-.777 1.762-1.451 1.762-2.332a1.461 1.461 0 0 0 -1.658-1.5 1.425 1.425 0 0 0 -1.606 1.4c.001 1.086.725 1.241 1.71 1.241zm5.545 7.358h-4.2c.052 2.85 1.555 3.989 6.115 3.989 4.249 0 5.959-.933 5.959-3.886 0-4.664-7.877-2.332-7.877-5.13 0-.674.777-1.244 1.814-1.244 1.089 0 1.5.465 1.762 1.451h3.99c-.049-2.487-1.499-3.627-5.49-3.627-4.146 0-6.063 1.14-6.063 3.732 0 5.13 7.877 2.383 7.877 5.286 0 .881-.466 1.3-1.606 1.3-1.347 0-2.175-.518-2.28-1.866zm3.213 15.959a2.28 2.28 0 1 1 0 4.56 2.267 2.267 0 0 1 -2.28-2.28 2.3 2.3 0 0 1 2.28-2.28zm1.921 2.282a1.918 1.918 0 0 0 -3.835 0 1.947 1.947 0 0 0 1.917 1.917 1.913 1.913 0 0 0 1.918-1.917zm-2.7 1.14v-2.28h.621c.622 0 1.089.155 1.089.725 0 .26-.155.466-.518.674l.415.881h-.415l-.363-.674h-.363v.674zm1.192-1.555c0-.155-.208-.259-.725-.259v.57c.364-.004.727-.004.727-.31z" transform="translate(-1.884)"/></g></svg>