<svg height="23.519" viewBox="0 0 65.348 23.519" width="65.348" xmlns="http://www.w3.org/2000/svg"><path d="m31.661 70.1c-4.252 4.994-8.329 11.186-8.37 15.815a5.479 5.479 0 0 0 1.874 4.414 9.09 9.09 0 0 0 6.135 2.243c3.075 0 6.129-1.236 8.52-2.193 4.027-1.61 48.54-20.94 48.54-20.94.429-.215.349-.483-.189-.349-.217.054-48.459 13.128-48.459 13.128a10.661 10.661 0 0 1 -2.808.4c-3.707.022-7.007-2.036-6.98-6.373a14.221 14.221 0 0 1 1.737-6.145z" fill="#fff" fill-rule="evenodd" transform="translate(-23.29 -69.054)"/></svg>