<svg height="19.509" viewBox="0 0 73.727 19.509" width="73.727" xmlns="http://www.w3.org/2000/svg"><path d="m-32.024-24.072c-3.434 0-4.851 1.222-4.851 4.125 0 3.134 1.245 4.3 4.736 4.3 2.524 0 3.48-.553 4.091-2.351h.115l-.15 2.2h4.413v-8.792a8.48 8.48 0 0 0 -.461-2.731c-.784-1.6-2.408-2.178-6.211-2.178-3.134 0-4.471.346-5.312 1.36-.5.611-.634 1.21-.668 2.812h4.448c.081-1.187.438-1.475 1.74-1.475 1.51 0 2.063.472 2.063 1.775v2.639h-.092c-.519-1.362-1.302-1.684-3.861-1.684zm1.971 5.543c-1.947 0-2.385-.288-2.374-1.487 0-1.049.553-1.394 2.063-1.394 1.763 0 2.259.288 2.259 1.337-.001 1.198-.439 1.543-1.948 1.543zm8.965-10.936v19.474h4.552v-8.1h.092c.53 1.809 1.544 2.443 3.895 2.443 1.936 0 3.042-.323 3.826-1.164 1.049-1.129 1.394-2.639 1.394-6.1 0-3.192-.346-4.552-1.475-5.543a5.274 5.274 0 0 0 -3.63-1.049c-2.489 0-3.273.438-4.321 2.408h-.092l.173-2.374zm9.322 6.995c0 2.777-.438 3.422-2.328 3.422-2.04 0-2.443-.634-2.443-3.86 0-2.731.438-3.307 2.385-3.307 2.006-.001 2.387.575 2.387 3.744zm6.672-6.995h-.006v19.474h4.547v-8.1h.092c.53 1.809 1.544 2.443 3.895 2.443 1.947 0 3.054-.323 3.837-1.164 1.049-1.129 1.394-2.639 1.394-6.1 0-3.192-.346-4.552-1.475-5.543a5.274 5.274 0 0 0 -3.629-1.045c-2.489 0-3.273.438-4.321 2.408h-.093l.173-2.374zm9.322 6.995c0 2.777-.438 3.422-2.328 3.422-2.04 0-2.443-.634-2.443-3.86 0-2.731.438-3.307 2.385-3.307 2.007-.001 2.387.575 2.387 3.744zm6.2-.438c0 3.4.323 4.874 1.3 5.854 1.037 1.037 2.662 1.417 5.831 1.417 2.846 0 4.264-.438 5.1-1.567a4.925 4.925 0 0 0 .784-2.846v-.265h-4.314c0 1.256-.461 1.6-2.063 1.6-1.8 0-2.316-.576-2.316-2.524a3.822 3.822 0 0 1 .035-.553h8.677v-1.278c0-4.943-1.486-6.419-6.418-6.419-2.639 0-4.183.369-5.2 1.3-1.035.925-1.415 2.353-1.415 5.28zm8.8-1.337h-4.409l.035-.38c.115-1.394.426-1.74 2.086-1.74 1.878 0 2.259.265 2.259 1.682a2.643 2.643 0 0 0 .034.438zm6.407-5.22h-.011v13.655h4.413v-7.836a3.838 3.838 0 0 1 .115-1.417 1.531 1.531 0 0 1 1.51-1.072c.956 0 1.187.461 1.187 2.235a2.731 2.731 0 0 1 -.035.461h4.033c-.023-.5-.023-.9-.023-1.072 0-2.259-.173-3.077-.784-3.918a3.19 3.19 0 0 0 -2.7-1.072c-1.763 0-2.639.611-3.422 2.328h-.081l.207-2.293z" fill="#fff" transform="translate(36.875 29.5)"/></svg>