<svg height="23.646" viewBox="0 0 87.349 23.646" width="87.349" xmlns="http://www.w3.org/2000/svg"><g fill="#8a8aa0"><path d="m15.656 21.612a3.541 3.541 0 0 0 -1.3-1.4 6.088 6.088 0 0 0 -2.067-.759 16.9 16.9 0 0 0 -2.809-.222h-4.968a1.245 1.245 0 0 0 -1.144.908l-3.342 14.561a.7.7 0 0 0 .719.9h2.379a1.218 1.218 0 0 0 1.142-.9l.816-3.535a1.219 1.219 0 0 1 1.14-.9h.678a11.267 11.267 0 0 0 6.78-1.788 5.569 5.569 0 0 0 2.429-4.718 4.425 4.425 0 0 0 -.453-2.147zm-5.131 4.757a5 5 0 0 1 -3.008.79h-.583a.709.709 0 0 1 -.723-.908l.716-3.091a1.2 1.2 0 0 1 1.133-.9l.78-.005a3.807 3.807 0 0 1 2.069.463 1.573 1.573 0 0 1 .686 1.417 2.575 2.575 0 0 1 -1.07 2.233z" transform="translate(0 -17.76)"/><path d="m48.783 20.991-.149.045-.2.028-.244-.038-.125-.121-.057-.191v-.286-1.059h.8v-.328h-.8v-.66h-.393v.66h-.267v.328h.267v1.231l.184.61.541.194.227-.019.241-.047v-.348z" transform="translate(34.694 -18.381)"/><path d="m51.658 18.958-.568-.234-.419.085-.426.288-.245-.276-.4-.1-.386.085-.366.236v-.252h-.386v2.31h.385v-1.724l.324-.2.322-.08.263.047.13.133.057.222.019.286v1.316h.386v-1.48l-.007-.123-.007-.113.329-.21.326-.081.255.047.139.133.049.224.026.282v1.322h.388v-1.501z" transform="translate(35.508 -18.13)"/><path d="m20.873 22.126a9.029 9.029 0 0 0 -4.252-.759 18.792 18.792 0 0 0 -2.878.224c-.712.109-.781.13-1.22.225a1.4 1.4 0 0 0 -1.047 1.1l-.291 1.2c-.165.764.276.735.459.671a12.364 12.364 0 0 1 1.423-.419 10.2 10.2 0 0 1 2.228-.3 5.873 5.873 0 0 1 2.164.3 1.093 1.093 0 0 1 .717 1.081l-.042.336-.342.215c-1.35.085-2.325.21-3.509.381a10.884 10.884 0 0 0 -3.017.83 4.69 4.69 0 0 0 -2.048 1.615 4.4 4.4 0 0 0 -.681 2.488 2.94 2.94 0 0 0 .969 2.26 3.637 3.637 0 0 0 2.507.856 6.84 6.84 0 0 0 1.494-.139l1.152-.4.976-.541.9-.593.012.017-.09.381-.005.016a.707.707 0 0 0 .636.891l.009.01h2.203l.031-.014a1.23 1.23 0 0 0 1.024-.891l1.735-7.508.09-.612.042-.574a2.51 2.51 0 0 0 -1.349-2.347zm-3.836 8.442-.371.489-.936.483a3.332 3.332 0 0 1 -1.244.269 2.855 2.855 0 0 1 -1.355-.258l-.459-.892a1.784 1.784 0 0 1 .348-1.159l1.008-.686a8.723 8.723 0 0 1 1.568-.353c.544-.068 1.618-.191 1.759-.194l.165.289c-.033.162-.338 1.437-.484 2.012z" transform="translate(6.255 -16.193)"/><path d="m45.811 22.133a9.047 9.047 0 0 0 -4.251-.761 18.114 18.114 0 0 0 -2.876.229c-.714.1-.785.126-1.225.22a1.391 1.391 0 0 0 -1.043 1.1l-.291 1.2c-.163.764.267.73.468.671a14.1 14.1 0 0 1 1.407-.424 10.641 10.641 0 0 1 2.234-.3 5.843 5.843 0 0 1 2.159.307 1.091 1.091 0 0 1 .717 1.08l-.036.334-.34.217c-1.364.081-2.341.206-3.512.378a10.887 10.887 0 0 0 -3.019.83 4.686 4.686 0 0 0 -2.048 1.618 4.346 4.346 0 0 0 -.683 2.478 2.907 2.907 0 0 0 .974 2.263 3.641 3.641 0 0 0 2.5.861 6.629 6.629 0 0 0 1.492-.14l1.149-.392.984-.541.891-.6.016.019-.081.385-.009.007v.007a.7.7 0 0 0 .632.891v.009h2.208l.036-.012a1.218 1.218 0 0 0 1.012-.9l1.74-7.5.092-.615.05-.575a2.506 2.506 0 0 0 -1.347-2.344zm-3.828 8.442-.386.494-.927.48a3.37 3.37 0 0 1 -1.239.269 2.771 2.771 0 0 1 -1.353-.26l-.464-.889a1.86 1.86 0 0 1 .34-1.164 2.438 2.438 0 0 1 1.019-.684 8.839 8.839 0 0 1 1.566-.352c.541-.068 1.612-.194 1.75-.2l.168.289c-.025.168-.332 1.442-.474 2.017z" transform="translate(24.53 -16.189)"/><path d="m40.59 21.643a3.681 3.681 0 0 0 -1.31-1.407 5.839 5.839 0 0 0 -2.067-.759 16.356 16.356 0 0 0 -2.8-.218h-4.975a1.236 1.236 0 0 0 -1.135.9l-3.344 14.574a.7.7 0 0 0 .717.9h2.383a1.234 1.234 0 0 0 1.144-.9l.806-3.537a1.234 1.234 0 0 1 1.144-.9h.681a11.326 11.326 0 0 0 6.8-1.787 5.631 5.631 0 0 0 2.419-4.725 4.641 4.641 0 0 0 -.463-2.141zm-5.131 4.763a5.066 5.066 0 0 1 -3 .78h-.593a.712.712 0 0 1 -.728-.906l.721-3.086a1.21 1.21 0 0 1 1.137-.9l.771-.005a3.851 3.851 0 0 1 2.069.461 1.586 1.586 0 0 1 .691 1.417 2.612 2.612 0 0 1 -1.068 2.24z" transform="translate(18.271 -17.738)"/><path d="m48.781 20.228a.7.7 0 0 0 -.714-.894h-2.132a1.207 1.207 0 0 0 -1.022.723l-.118.184-.107.471-2.979 13.54-.1.416v.01a.675.675 0 0 0 .6.846l.036.05h2.213a1.208 1.208 0 0 0 1.026-.735l.114-.173 3.19-14.436z" transform="translate(30.481 -17.683)"/><path d="m30.916 21.472c-.563.007-2.852 0-2.852 0a2.062 2.062 0 0 0 -1.5.908s-3.407 5.846-3.738 6.434l-.4-.005-1.06-6.389a1.31 1.31 0 0 0 -1.3-.932h-2.131a.7.7 0 0 0 -.712.908s1.618 9.21 1.942 11.378c.151 1.2-.019 1.409-.019 1.409l-2.107 3.67c-.312.5-.144.906.367.906h2.464a1.991 1.991 0 0 0 1.492-.9l9.478-16.032s.924-1.374.076-1.355z" transform="translate(12.379 -16.116)"/></g></svg>