<svg xmlns="http://www.w3.org/2000/svg" width="111" height="33.292" viewBox="0 0 111 33.292"><path d="M91.074,1369.145a16.646,16.646,0,1,0,16.646,16.646,16.646,16.646,0,0,0-16.646-16.646Zm7.634,24.008a1.037,1.037,0,0,1-1.427.345c-3.909-2.389-8.829-2.929-14.623-1.605a1.037,1.037,0,1,1-.462-2.022c6.341-1.45,11.78-.826,16.167,1.855a1.037,1.037,0,0,1,.344,1.427Zm2.037-4.532a1.3,1.3,0,0,1-1.785.427,21.849,21.849,0,0,0-16.587-1.94,1.3,1.3,0,1,1-.754-2.483,24.284,24.284,0,0,1,18.7,2.212,1.3,1.3,0,0,1,.427,1.784Zm.175-4.72c-5.366-3.187-14.216-3.48-19.338-1.925a1.557,1.557,0,1,1-.9-2.98c5.88-1.785,15.655-1.44,21.831,2.227a1.557,1.557,0,0,1-1.589,2.678Zm18.8.611c-2.874-.685-3.386-1.166-3.386-2.177,0-.955.9-1.6,2.236-1.6a6.533,6.533,0,0,1,3.928,1.493.188.188,0,0,0,.142.035.186.186,0,0,0,.124-.077l1.4-1.978a.189.189,0,0,0-.036-.256,8.491,8.491,0,0,0-5.52-1.912c-3.1,0-5.271,1.862-5.271,4.527,0,2.857,1.87,3.869,5.1,4.65,2.75.633,3.214,1.164,3.214,2.113,0,1.051-.939,1.7-2.449,1.7a6.6,6.6,0,0,1-4.577-1.891.2.2,0,0,0-.138-.045.186.186,0,0,0-.129.066l-1.573,1.873a.187.187,0,0,0,.019.261,9.381,9.381,0,0,0,6.335,2.43c3.344,0,5.5-1.827,5.5-4.655.006-2.387-1.423-3.709-4.924-4.561Zm12.495-2.834a4.509,4.509,0,0,0-3.619,1.741V1382.1a.188.188,0,0,0-.188-.189H125.83a.188.188,0,0,0-.188.189v14.63a.188.188,0,0,0,.188.189H128.4a.189.189,0,0,0,.188-.189v-4.618a4.623,4.623,0,0,0,3.619,1.638c2.693,0,5.42-2.073,5.42-6.036s-2.723-6.038-5.417-6.038Zm2.427,6.038c0,2.018-1.243,3.426-3.023,3.426a3.445,3.445,0,0,1,0-6.853,3.137,3.137,0,0,1,3.023,3.426Zm9.98-6.038a6.05,6.05,0,1,0,6.164,6.038,6.069,6.069,0,0,0-6.164-6.038Zm0,9.484a3.273,3.273,0,0,1-3.236-3.448,3.2,3.2,0,0,1,3.193-3.406,3.283,3.283,0,0,1,3.257,3.449,3.2,3.2,0,0,1-3.214,3.4h0Zm13.57-9.249h-2.832v-2.9a.188.188,0,0,0-.188-.188H152.6a.189.189,0,0,0-.189.188v2.9h-1.237a.188.188,0,0,0-.187.189v2.212a.188.188,0,0,0,.187.189h1.237v5.723c0,2.313,1.151,3.485,3.421,3.485a4.7,4.7,0,0,0,2.411-.6.188.188,0,0,0,.1-.163v-2.106a.189.189,0,0,0-.273-.169,3.244,3.244,0,0,1-1.511.365c-.826,0-1.194-.375-1.194-1.215V1384.5h2.832a.188.188,0,0,0,.188-.189V1382.1a.182.182,0,0,0-.185-.189Zm9.867.011v-.356c0-1.046.4-1.513,1.3-1.513a4.342,4.342,0,0,1,1.45.267.188.188,0,0,0,.247-.179v-2.169a.188.188,0,0,0-.133-.181,7.065,7.065,0,0,0-2.139-.307c-2.377,0-3.633,1.339-3.633,3.87v.545h-1.236a.189.189,0,0,0-.189.188v2.223a.189.189,0,0,0,.189.189h1.236v8.827a.188.188,0,0,0,.188.189h2.574a.189.189,0,0,0,.189-.189V1384.5h2.4l3.681,8.825c-.418.927-.829,1.112-1.39,1.112a2.967,2.967,0,0,1-1.419-.4.193.193,0,0,0-.15-.014.19.19,0,0,0-.111.1l-.872,1.914a.187.187,0,0,0,.081.243,5.419,5.419,0,0,0,2.748.7c1.9,0,2.951-.885,3.876-3.266l4.465-11.537a.188.188,0,0,0-.175-.257h-2.679a.189.189,0,0,0-.178.126l-2.744,7.839-3.006-7.844a.188.188,0,0,0-.176-.121h-4.4Zm-5.721-.011h-2.574a.189.189,0,0,0-.189.189v11.228a.189.189,0,0,0,.189.189h2.574a.189.189,0,0,0,.189-.189V1382.1a.188.188,0,0,0-.189-.189Zm-1.272-5.112a1.846,1.846,0,1,0,1.846,1.845,1.846,1.846,0,0,0-1.846-1.845Zm22.545,8.722a1.816,1.816,0,1,1,1.821-1.822,1.8,1.8,0,0,1-1.821,1.822Zm.01-3.452a1.635,1.635,0,1,0,1.621,1.63,1.619,1.619,0,0,0-1.621-1.63h0Zm.4,1.816.512.717H184.1l-.461-.658h-.4v.658h-.362v-1.9h.848c.442,0,.732.226.732.606a.564.564,0,0,1-.439.578Zm-.306-.858h-.472v.6h.472c.235,0,.376-.115.376-.3s-.141-.3-.376-.3h0Z" transform="translate(-74.428 -1369.145)" fill="#5a708c"></path></svg>