<svg height="21.293" viewBox="0 0 62.105 21.293" width="62.105" xmlns="http://www.w3.org/2000/svg"><g fill="#fff"><path d="m-23.838-20.01v15.877h3.451v-6.788c0-1.726.966-3.06 2.6-3.06 1.243 0 1.841.736 1.841 2.025v7.823h3.451v-8.077a4.036 4.036 0 0 0 -4.348-4.39 4.328 4.328 0 0 0 -3.543 1.657v-5.067zm18.73 16.153c3.543 0 5.568-1.68 5.568-4.809v-7.662h-3.451v7.777a1.969 1.969 0 0 1 -2.117 2.117 1.952 1.952 0 0 1 -2.092-2.117v-7.777h-3.451v7.662c-.003 3.129 2.022 4.809 5.543 4.809zm7.524-16.153v15.877h3.175v-1.749a4.251 4.251 0 0 0 3.909 2.025c2.807 0 5.108-1.795 5.108-6.374s-2.298-6.369-5.108-6.369a4.375 4.375 0 0 0 -3.635 1.634v-5.044zm6.051 13.576c-1.5 0-2.669-.92-2.669-3.8s1.173-3.8 2.669-3.8c1.7 0 2.623 1.035 2.623 3.8 0 2.787-.943 3.8-2.623 3.8z" transform="translate(47.494 22.418)"/><g fill-rule="evenodd"><path d="m4.937 49.385h-4.937v-4.938a4.937 4.937 0 0 1 8.429-3.491 4.937 4.937 0 0 1 -3.491 8.429" transform="translate(0 -28.092)"/><path d="m15.944.5h-10.944a5.005 5.005 0 0 0 -5 5.015v5.131h10.892a5.063 5.063 0 0 0 5.053-5.073z" transform="translate(0 -.5)"/></g></g></svg>