<svg xmlns="http://www.w3.org/2000/svg" width="177.722" height="35.886" viewBox="0 0 177.722 35.886"><path d="M45.651,18.4a6.506,6.506,0,0,1,6.586-6.813A5.8,5.8,0,0,1,57.8,15.218L55.645,16.24a3.589,3.589,0,0,0-3.52-2.385c-2.044,0-3.975,1.817-3.975,4.657,0,2.725,1.931,4.657,3.975,4.657a3.892,3.892,0,0,0,3.748-2.385l2.158.908a5.965,5.965,0,0,1-5.678,3.634A6.7,6.7,0,0,1,45.651,18.4Zm16.467-6.359L62,13.854h.114A4.906,4.906,0,0,1,66.206,11.7c3.293,0,4.883,2.158,4.883,5.337v7.836H68.7V17.376c0-2.611-1.362-3.52-3.179-3.52-2.044,0-3.407,1.931-3.407,3.975v7.041H59.734V6.245h2.385ZM73.588,24.87V12.037h2.27v2.044h.114A4.245,4.245,0,0,1,79.721,11.7a4.333,4.333,0,0,1,1.817.341l-.908,2.27a4.061,4.061,0,0,0-1.249-.227,3.489,3.489,0,0,0-3.293,3.748V24.87ZM94.71,18.4a6.59,6.59,0,1,1-13.172,0,6.59,6.59,0,1,1,13.172,0Zm-2.385,0a4.224,4.224,0,1,0-8.4,0,4.224,4.224,0,1,0,8.4,0Zm4.316-6.359h2.27v1.817h.114A4.735,4.735,0,0,1,103,11.7a4.079,4.079,0,0,1,4.087,2.5,5.154,5.154,0,0,1,4.428-2.5c3.066,0,4.542,2.158,4.542,5.337v7.836h-2.5V17.376c0-2.611-1.023-3.52-2.84-3.52-1.931,0-3.293,1.931-3.293,3.975v7.041h-2.385v-7.5c0-2.611-1.023-3.52-2.84-3.52-1.931,0-3.293,1.931-3.293,3.975v7.041H96.525V12.039h.116ZM117.763,18.4c0-3.634,2.5-6.813,6.245-6.813s6.245,2.725,6.245,6.813v.453H120.146a4.089,4.089,0,0,0,4.087,4.2,3.634,3.634,0,0,0,3.52-2.158l2.158.908a5.835,5.835,0,0,1-5.565,3.52,6.6,6.6,0,0,1-6.583-6.925Zm6.245-4.542a3.748,3.748,0,0,0-3.634,3.066h7.382A3.471,3.471,0,0,0,124.009,13.854Zm7.609,4.542a6.506,6.506,0,0,1,6.586-6.813,5.8,5.8,0,0,1,5.565,3.634l-2.158.908a3.589,3.589,0,0,0-3.52-2.385c-2.044,0-3.975,1.817-3.975,4.657,0,2.725,1.931,4.657,3.975,4.657a3.892,3.892,0,0,0,3.748-2.385l2.158.908a5.965,5.965,0,0,1-5.678,3.634,6.536,6.536,0,0,1-6.7-6.816Zm13.627,2.613c0-2.84,2.611-4.428,5.565-4.428a6.367,6.367,0,0,1,3.407.794V16.92a3.1,3.1,0,0,0-3.293-3.066,3.209,3.209,0,0,0-3.066,1.817l-2.158-.908c.453-1.135,1.931-3.066,5.224-3.066,3.066,0,5.678,1.817,5.678,5.451v7.721h-2.27V23.051h-.114a4.917,4.917,0,0,1-4.2,2.158c-2.613,0-4.771-1.589-4.771-4.2Zm8.972-1.7a5.243,5.243,0,0,0-3.066-.794c-2.5,0-3.52,1.362-3.52,2.5,0,1.362,1.362,2.044,2.611,2.044A3.9,3.9,0,0,0,154.217,19.305Zm3.861,2.272,2.158-.908a3.6,3.6,0,0,0,3.407,2.385c1.476,0,2.5-.682,2.5-1.817,0-.682-.341-1.362-1.7-1.7l-2.611-.568c-1.135-.341-3.407-1.249-3.407-3.52s2.385-3.748,5-3.748A5.047,5.047,0,0,1,168.3,14.65l-2.044.908a2.893,2.893,0,0,0-2.952-1.7c-1.362,0-2.5.568-2.5,1.59,0,.794.682,1.249,1.7,1.476l2.5.568c2.5.568,3.52,2.158,3.52,3.748,0,2.27-2.044,3.975-5,3.975a5.643,5.643,0,0,1-5.453-3.636Zm13.627-.682V14.2h-2.27V12.037h2.27V8.176h2.385v3.861h3.066V14.2H174.09v6.474c0,1.476.568,2.044,1.7,2.044a1.868,1.868,0,0,0,1.135-.227l.794,2.044a4.9,4.9,0,0,1-1.931.341c-2.609.112-4.086-1.364-4.086-3.975Zm-137.3-9.879H22.145a8.264,8.264,0,0,1,3.861,6.927,10.037,10.037,0,0,1-.227,1.817v.114a6.635,6.635,0,0,1-.908,2.5L17.149,35.886h.682A17.909,17.909,0,0,0,35.774,17.943,17.166,17.166,0,0,0,34.409,11.016ZM17.943,26.005a8.52,8.52,0,0,1-5.9-2.5,11.4,11.4,0,0,1-1.476-1.817l-.227-.227L2.725,8.4A18.02,18.02,0,0,0,0,17.943,17.729,17.729,0,0,0,15.671,35.658L21.8,24.983a7.548,7.548,0,0,1-3.861,1.023ZM17.943,0A17.906,17.906,0,0,0,3.522,7.268L9.654,17.715a.68.68,0,0,1,.114.453v-.341a8.066,8.066,0,0,1,6.7-7.95h.114a6.3,6.3,0,0,1,2.044-.227h15.1A17.932,17.932,0,0,0,17.943,0Zm6.472,17.943a6.474,6.474,0,1,1-12.947,0,6.545,6.545,0,0,1,6.475-6.474A6.4,6.4,0,0,1,24.415,17.943Z" fill="#fff"></path></svg>