<svg xmlns="http://www.w3.org/2000/svg" width="72.33" height="72.331" viewBox="0 0 72.33 72.331"><path d="M37.165,1A36.165,36.165,0,1,0,73.33,37.165,36.206,36.206,0,0,0,37.165,1Zm0,67.646A31.481,31.481,0,1,1,68.645,37.165,31.516,31.516,0,0,1,37.165,68.646Zm12.287-42.03h.285V25.234h.514V24.99H48.938v.244h.513Zm1.255-1.257h.005l.451,1.257H51.4l.451-1.257h.006v1.257h.268V24.99h-.394l-.436,1.272h-.008l-.447-1.272h-.4v1.626h.27V25.36Zm-8.213-.371H24.7L22,29.327H39.773l2.72-4.338Zm3.636.041L35.253,42.349H23.188l2.783-4.342H33.2l2.762-4.34H19.248l-2.762,4.34h3.96l-5.494,8.669h22.93l8.469-13.357,3.088,4.688H46.655l-2.637,4.342h8.246l2.863,4.327h5.26L46.129,25.03Z" transform="translate(-1 -1)" fill="#fff"></path></svg>