<svg height="51.731" viewBox="0 0 66.494 51.731" width="66.494" xmlns="http://www.w3.org/2000/svg"><g fill="#fff"><path d="m165.293 1324.34v.133h.124a.131.131 0 0 0 .066-.017.059.059 0 0 0 .025-.051.057.057 0 0 0 -.025-.05.119.119 0 0 0 -.066-.017h-.124zm.125-.094a.229.229 0 0 1 .149.043.142.142 0 0 1 .052.118.135.135 0 0 1 -.042.1.2.2 0 0 1 -.119.05l.166.189h-.124l-.153-.188h-.05v.188h-.107v-.5h.233zm-.033.677a.4.4 0 0 0 .163-.033.428.428 0 0 0 .133-.09.422.422 0 0 0 .09-.133.422.422 0 0 0 -.223-.552.42.42 0 0 0 -.163-.031.438.438 0 0 0 -.166.031.424.424 0 0 0 -.136.09.43.43 0 0 0 -.089.465.4.4 0 0 0 .089.133.425.425 0 0 0 .136.09.414.414 0 0 0 .166.033m0-.964a.556.556 0 0 1 .391.16.536.536 0 0 1 .118.593.56.56 0 0 1 -.118.172.6.6 0 0 1 -.175.116.565.565 0 0 1 -.433 0 .568.568 0 0 1 -.176-.116.562.562 0 0 1 -.116-.178.537.537 0 0 1 .118-.593.527.527 0 0 1 .176-.116.553.553 0 0 1 .218-.043m-50.9-1.937a1.652 1.652 0 1 1 1.655 1.747 1.637 1.637 0 0 1 -1.655-1.747m4.417 0v-2.729h-1.186v.665a2.068 2.068 0 0 0 -1.723-.8 2.869 2.869 0 0 0 0 5.73 2.069 2.069 0 0 0 1.723-.8v.663h1.181v-2.729zm40.088 0a1.652 1.652 0 1 1 1.656 1.747 1.637 1.637 0 0 1 -1.656-1.747m4.419 0v-4.92h-1.187v2.856a2.067 2.067 0 0 0 -1.723-.8 2.869 2.869 0 0 0 0 5.73 2.068 2.068 0 0 0 1.723-.8v.663h1.187zm-29.782-1.8a1.355 1.355 0 0 1 1.381 1.323h-2.831a1.4 1.4 0 0 1 1.45-1.323m.024-1.064a2.868 2.868 0 0 0 .079 5.73 3.314 3.314 0 0 0 2.237-.765l-.581-.879a2.6 2.6 0 0 1 -1.587.571 1.515 1.515 0 0 1 -1.632-1.336h4.051c.012-.148.024-.3.024-.456a2.618 2.618 0 0 0 -2.591-2.865m14.324 2.865a1.652 1.652 0 1 1 1.655 1.747 1.637 1.637 0 0 1 -1.655-1.747m4.417 0v-2.727h-1.186v.665a2.069 2.069 0 0 0 -1.723-.8 2.869 2.869 0 0 0 0 5.73 2.07 2.07 0 0 0 1.723-.8v.663h1.186v-2.729zm-11.117 0a2.756 2.756 0 0 0 2.911 2.865 2.852 2.852 0 0 0 1.961-.651l-.57-.959a2.4 2.4 0 0 1 -1.429.491 1.75 1.75 0 0 1 0-3.494 2.4 2.4 0 0 1 1.429.491l.57-.959a2.855 2.855 0 0 0 -1.961-.651 2.756 2.756 0 0 0 -2.911 2.865m15.3-2.865a1.611 1.611 0 0 0 -1.438.8v-.661h-1.176v5.456h1.188v-3.058c0-.9.388-1.4 1.164-1.4a1.925 1.925 0 0 1 .742.137l.366-1.118a2.522 2.522 0 0 0 -.845-.149m-31.8.571a4.079 4.079 0 0 0 -2.225-.571c-1.382 0-2.272.662-2.272 1.746 0 .89.663 1.438 1.883 1.61l.56.08c.651.091.958.263.958.571 0 .422-.432.662-1.244.662a2.907 2.907 0 0 1 -1.815-.571l-.557.925a3.936 3.936 0 0 0 2.362.708c1.576 0 2.489-.742 2.489-1.781 0-.959-.719-1.461-1.906-1.632l-.559-.081c-.514-.066-.925-.17-.925-.536 0-.4.388-.639 1.039-.639a3.518 3.518 0 0 1 1.7.468l.514-.959zm15.309-.57a1.607 1.607 0 0 0 -1.437.8v-.663h-1.176v5.456h1.186v-3.058c0-.9.388-1.4 1.164-1.4a1.925 1.925 0 0 1 .742.137l.366-1.118a2.522 2.522 0 0 0 -.845-.149m-10.124.137h-1.94v-1.655h-1.2v1.655h-1.124v1.084h1.107v2.489c0 1.266.491 2.02 1.895 2.02a2.787 2.787 0 0 0 1.484-.422l-.343-1.016a2.2 2.2 0 0 1 -1.05.308c-.593 0-.787-.366-.787-.913v-2.465h1.94zm-17.738 5.457v-3.424a2.032 2.032 0 0 0 -2.146-2.169 2.112 2.112 0 0 0 -1.918.971 2 2 0 0 0 -1.8-.971 1.8 1.8 0 0 0 -1.6.81v-.674h-1.202v5.456h1.2v-3.025a1.277 1.277 0 0 1 1.336-1.45c.788 0 1.186.514 1.186 1.438v3.036h1.2v-3.025a1.287 1.287 0 0 1 1.335-1.45c.81 0 1.2.514 1.2 1.438v3.036z" transform="translate(-100.117 -1273.316)"/><path d="m1930.582 978.018v-.8h-.208l-.24.547-.239-.547h-.208v.8h.148v-.6l.225.519h.153l.225-.52v.6h.146zm-1.318 0v-.661h.266v-.135h-.679v.135h.266v.661h.146z" transform="translate(-1864.729 -944.735)"/><path d="m747.69 164.462h-17.98v-32.312h17.98z" opacity=".389" transform="translate(-705.452 -127.758)"/><path d="m25.4 20.549a20.516 20.516 0 0 1 7.846-16.156 20.55 20.55 0 1 0 0 32.312 20.516 20.516 0 0 1 -7.846-16.156"/><path d="m1033.358 20.549a20.549 20.549 0 0 1 -33.248 16.156 20.551 20.551 0 0 0 0-32.312 20.548 20.548 0 0 1 33.247 16.156" transform="translate(-966.863)"/></g></svg>