<svg height="42.593" viewBox="0 0 100.409 42.593" width="100.409" xmlns="http://www.w3.org/2000/svg"><path d="m144.309 77.644c-36.537-2.75-66.733 5.837-73.524 9.036-3.76 1.684-4.041 3.817-3.48 5 .505.9 2.3 1.459 4.265.449 14.48-7.689 43.834-13.807 72.738-12.067a1.207 1.207 0 1 0 0-2.413zm9.036-10.776c-1.515 1.684-3.76 2.975-4.49 2.357-.673-.617 0-2.638 0-2.638 3.592-2.3 10.552-8.138 10.552-12.628 0-4.153-3.76-5.444-7.745-1.571a28.873 28.873 0 0 0 -6.791 12.123c-2.077 2.02-5.332 4.6-8.307 4.6-1.515 0-1.964-1.066-1.74-2.526 2.526-.056 9.485-1.964 9.485-7.745a3.628 3.628 0 0 0 -1.122-2.526 3.535 3.535 0 0 0 -2.638-.9c-3.143 0-7.184 3.2-9.148 7.689a7.345 7.345 0 0 1 -1.571-.505 19.224 19.224 0 0 0 1.235-3.424c.449-2.357-.561-3.816-2.526-3.648-1.235.112-2.75 1.179-3.031 3.648a6.848 6.848 0 0 0 .673 3.648c-.842 2.638-4.378 5.949-5.556 5.837s.168-4.827 1.347-8.307a6.544 6.544 0 0 0 1.514-2.352 1.454 1.454 0 0 0 -.561-1.908 3.653 3.653 0 0 0 -4.6 1.908 16.072 16.072 0 0 0 -1.235 2.638c-.954 1.179-2.526 2.638-2.975 2.526-.673-.449 1.515-3.311 1.235-4.883a2.538 2.538 0 0 0 -2.75-2.133c-1.964.281-4.6 3.985-4.6 3.985a7.049 7.049 0 0 0 .557-2.133c-.112-1.4-2.75-2.021-4.041.505a38.008 38.008 0 0 0 -1.964 7.521c-.561 1.179-2.75 4.6-4.49 4.715-1.4.112.337-6.062.561-6.4.786-1.179 1.74-3.648 1.515-4.714a1.793 1.793 0 0 0 -.617-1.347 1.679 1.679 0 0 0 -1.459-.28 3.281 3.281 0 0 0 -2.077 1.572 2.737 2.737 0 0 0 -2.638-.954c-5.781.617-9.485 10.552-9.092 15.21.337 2.526 1.515 4.041 3.76 3.76 2.526-.337 4.6-3.929 4.6-3.929s.561 2.975 3.255 2.638a10.2 10.2 0 0 0 5.107-3.536 1.639 1.639 0 0 0 -.112.505c-.449 2.526 3.76 2.245 4.153.337 1.235-9.485 4.49-13.414 5.444-13.414.786 0-2.077 4.49-.449 6.174 1.235 1.515 3.48.337 5.332-1.235a15.938 15.938 0 0 0 -.561 3.648c-.112 2.638.842 4.771 3.48 4.715 3.48-.112 7.184-4.378 9.6-8.419a6.736 6.736 0 0 0 2.077.842 10.119 10.119 0 0 0 -.281 2.919c.224 3.087 2.413 4.266 4.939 4.153 2.975-.112 6.454-2.357 8.812-4.378a.8.8 0 0 1 -.112.337c-.224 1.515.112 4.266 2.3 4.378 2.526.225 6.847-2.357 9.036-5 1.853-1.174.057-2.858-1.29-1.455zm2.355-12.853a.491.491 0 0 1 .449.505c0 2.638-6.791 8.307-6.791 8.307s4.436-8.812 6.342-8.812zm-16.33 5.557a.844.844 0 0 1 .617.224.633.633 0 0 1 .168.617c0 1.515-2.077 2.638-4.378 2.638 1.235-1.739 2.639-3.479 3.593-3.479zm-45.181 4.153c-.225 1.571-3.031 8.755-4.6 8.755-1.964.112.954-10.1 4.153-10.046.615 0 .615.449.447 1.291zm-24.583 1.908c1.852 0-1.515 9.485-1.066 13.638s5.107 2.975 4.771.505c-.561-4.041 2.3-16.95 5.107-16.95 2.077 0-2.3 8.868-1.4 14.368.561 3.648 5.556 2.526 5 .225-1.515-7.24 3.592-14.256 2.919-19.363-.337-2.133-1.515-3.311-2.975-3.311-4.715 0-8.531 9.373-8.531 9.373s.449-5.332-3.368-5.556c-5.508-.281-11.177 13.357-11.063 25.705.112 3.929 5.107 3.311 4.771.112-.282-5.5 2.973-18.746 5.835-18.746z" fill="#fff" transform="translate(-58.997 -50.07)"/></svg>