<svg xmlns="http://www.w3.org/2000/svg" width="122.567" height="36.761" viewBox="0 0 122.567 36.761"><path d="M92.809,1369.145a18.381,18.381,0,1,0,18.381,18.38,18.381,18.381,0,0,0-18.381-18.38Zm8.429,26.51a1.145,1.145,0,0,1-1.575.381c-4.316-2.638-9.749-3.234-16.147-1.772a1.145,1.145,0,1,1-.51-2.233c7-1.6,13.007-.912,17.852,2.049a1.145,1.145,0,0,1,.38,1.576Zm2.25-5a1.434,1.434,0,0,1-1.971.472c-4.94-3.036-12.472-3.916-18.316-2.142a1.433,1.433,0,1,1-.833-2.742,26.815,26.815,0,0,1,20.647,2.442,1.432,1.432,0,0,1,.472,1.97h0Zm.193-5.212c-5.925-3.519-15.7-3.842-21.354-2.126a1.719,1.719,0,1,1-1-3.29c6.493-1.971,17.286-1.59,24.106,2.459a1.719,1.719,0,0,1-1.754,2.957Zm20.755.674c-3.174-.757-3.739-1.288-3.739-2.4,0-1.055.993-1.764,2.469-1.764a7.214,7.214,0,0,1,4.338,1.648.207.207,0,0,0,.157.038.2.2,0,0,0,.137-.085l1.55-2.184a.208.208,0,0,0-.04-.283,9.376,9.376,0,0,0-6.095-2.111c-3.427,0-5.82,2.056-5.82,5,0,3.155,2.065,4.272,5.633,5.135,3.037.7,3.549,1.286,3.549,2.333,0,1.161-1.036,1.883-2.7,1.883a7.289,7.289,0,0,1-5.054-2.088.216.216,0,0,0-.153-.049.205.205,0,0,0-.143.073l-1.737,2.068a.206.206,0,0,0,.021.288,10.358,10.358,0,0,0,7,2.683c3.692,0,6.078-2.018,6.078-5.14.007-2.636-1.572-4.1-5.437-5.036Zm13.8-3.13a4.979,4.979,0,0,0-4,1.922v-1.454a.208.208,0,0,0-.208-.208h-2.842a.208.208,0,0,0-.208.208v16.155a.208.208,0,0,0,.208.208h2.842a.208.208,0,0,0,.208-.208v-5.1a5.1,5.1,0,0,0,4,1.809c2.974,0,5.984-2.289,5.984-6.665s-3.007-6.667-5.981-6.667Zm2.68,6.667c0,2.229-1.373,3.784-3.338,3.784a3.8,3.8,0,0,1,0-7.567c1.934,0,3.338,1.591,3.338,3.783Zm11.02-6.667a6.68,6.68,0,1,0,6.806,6.667,6.7,6.7,0,0,0-6.806-6.667Zm0,10.473a3.614,3.614,0,0,1-3.573-3.807,3.529,3.529,0,0,1,3.526-3.761,3.625,3.625,0,0,1,3.6,3.808,3.538,3.538,0,0,1-3.549,3.759Zm14.984-10.213H163.79v-3.2a.208.208,0,0,0-.207-.208h-2.841a.208.208,0,0,0-.208.208v3.2h-1.366a.208.208,0,0,0-.207.208v2.442a.208.208,0,0,0,.207.208h1.366v6.319c0,2.554,1.271,3.849,3.778,3.849a5.184,5.184,0,0,0,2.662-.662.207.207,0,0,0,.1-.18V1393.1a.208.208,0,0,0-.3-.187,3.582,3.582,0,0,1-1.668.4c-.912,0-1.318-.414-1.318-1.342V1386.1h3.127a.208.208,0,0,0,.207-.208v-2.442a.2.2,0,0,0-.2-.208Zm10.9.012v-.393c0-1.155.443-1.67,1.436-1.67a4.8,4.8,0,0,1,1.6.3.208.208,0,0,0,.273-.2V1378.9a.208.208,0,0,0-.147-.2,7.8,7.8,0,0,0-2.362-.339c-2.625,0-4.012,1.478-4.012,4.273v.6h-1.365a.209.209,0,0,0-.209.208v2.455a.209.209,0,0,0,.209.208H174.6v9.747a.208.208,0,0,0,.207.208h2.842a.209.209,0,0,0,.208-.208V1386.1h2.653l4.064,9.745c-.461,1.024-.915,1.228-1.534,1.228a3.277,3.277,0,0,1-1.567-.445.213.213,0,0,0-.165-.016.21.21,0,0,0-.123.112l-.963,2.113a.207.207,0,0,0,.09.269,5.984,5.984,0,0,0,3.035.777c2.1,0,3.258-.977,4.28-3.607l4.93-12.739a.208.208,0,0,0-.193-.284h-2.958a.209.209,0,0,0-.2.14l-3.03,8.656-3.319-8.662a.208.208,0,0,0-.194-.134h-4.854Zm-6.317-.012h-2.842a.208.208,0,0,0-.208.208v12.4a.209.209,0,0,0,.208.208H171.5a.209.209,0,0,0,.208-.208v-12.4a.208.208,0,0,0-.209-.208Zm-1.4-5.645a2.038,2.038,0,1,0,2.038,2.037,2.038,2.038,0,0,0-2.038-2.037Zm24.894,9.631a2.005,2.005,0,1,1,2.01-2.011,1.992,1.992,0,0,1-2.01,2.011Zm.011-3.812a1.806,1.806,0,1,0,1.79,1.8,1.788,1.788,0,0,0-1.79-1.8h0Zm.443,2.006.566.792h-.477l-.509-.727h-.438v.727h-.4v-2.1h.936c.488,0,.808.25.808.67a.623.623,0,0,1-.485.638Zm-.338-.947h-.521v.664h.521c.26,0,.415-.127.415-.332s-.156-.332-.415-.332Z" transform="translate(-74.428 -1369.145)" fill="#fff"></path></svg>