<svg height="61.043" viewBox="0 0 61.043 61.043" width="61.043" xmlns="http://www.w3.org/2000/svg"><g fill="#fff" fill-rule="evenodd"><path d="m33.315 2.865a30.522 30.522 0 1 0 30.521 30.522 30.522 30.522 0 0 0 -30.521-30.522zm0 58.307a27.785 27.785 0 1 1 27.785-27.785 27.785 27.785 0 0 1 -27.785 27.785z" transform="translate(-2.793 -2.865)"/><path d="m77.692 31a21.772 21.772 0 0 1 12.16 0l-6.077 13.463z" transform="translate(-53.253 -21.233)"/><path d="m63.29 40.477a21.762 21.762 0 0 1 5.859 5.5l-9.973 22.07-3.849-8.557h-7.292l-3.848 8.557-9.959-22.09a21.742 21.742 0 0 1 5.843-5.476l7.964 17.667h7.317zm-32.5 12.652a21.662 21.662 0 0 0 11.238 24.955z" transform="translate(-21.16 -28.205)"/><path d="m78 105.737a21.773 21.773 0 0 0 11.958 0l-5.975-13.269zm15.635-1.43a21.665 21.665 0 0 0 11.255-24.907z" transform="translate(-53.461 -54.427)"/></g></svg>