<svg xmlns="http://www.w3.org/2000/svg" width="221" height="38.195" viewBox="0 0 221 38.195">
  <g id="logo_white" transform="translate(-36.778 -324.42)">
    <g id="グループ_1" data-name="グループ 1" transform="translate(86.931 333.004)">
      <path id="パス_1" data-name="パス 1" d="M312.4,372.438h-7.055v4.829h4.668v3.406h-4.668v8.839h-3.477l-.034-20.482H312.4q.067,0,.135.7t.068,1.415Q312.6,372.439,312.4,372.438Z" transform="translate(-301.831 -368.928)" fill="#fff"/>
      <path id="パス_2" data-name="パス 2" d="M362.66,415.44v-7.5h3.579v7.5a1.941,1.941,0,0,0,.75,1.636,3.1,3.1,0,0,0,3.612,0,1.946,1.946,0,0,0,.75-1.636v-7.5h3.578v7.5a5.057,5.057,0,0,1-1.807,4.141,7.063,7.063,0,0,1-8.656,0A5.059,5.059,0,0,1,362.66,415.44Z" transform="translate(-350.461 -400.036)" fill="#fff"/>
      <path id="パス_3" data-name="パス 3" d="M441.509,368.52h3.578v11.655l3.442-4.157H453.2l-5.655,6.748,5.281,6.339-4.662-.005-3.067-3.681-.006,3.686h-3.578Z" transform="translate(-413.498 -368.52)" fill="#fff"/>
      <path id="パス_4" data-name="パス 4" d="M515.772,415.44v-7.5h3.578v7.5a1.942,1.942,0,0,0,.75,1.636,3.1,3.1,0,0,0,3.611,0,1.944,1.944,0,0,0,.75-1.636v-7.5h3.578v7.5a5.059,5.059,0,0,1-1.806,4.141,7.062,7.062,0,0,1-8.655,0A5.058,5.058,0,0,1,515.772,415.44Z" transform="translate(-472.869 -400.036)" fill="#fff"/>
      <path id="パス_5" data-name="パス 5" d="M601.435,405.739v3.407a3.683,3.683,0,0,0-2.352.6,2.156,2.156,0,0,0-.715,1.756v7.361H594.79V411.5a5.629,5.629,0,0,1,1.55-4.313Q597.891,405.738,601.435,405.739Z" transform="translate(-536.041 -398.275)" fill="#fff"/>
      <path id="パス_6" data-name="パス 6" d="M642.2,407.339a6.631,6.631,0,0,1,5.01-2.113,7.147,7.147,0,0,1,2.727.53,6.4,6.4,0,0,1,2.248,1.533,6.745,6.745,0,0,1,1.432,2.249,6.959,6.959,0,0,1,.478,2.505,5.976,5.976,0,0,1-1.415,4.241,8.007,8.007,0,0,1-2.709,2.045,7.221,7.221,0,0,1-2.76.529,6.455,6.455,0,0,1-4.959-2.079,6.813,6.813,0,0,1-.05-9.44Zm2.488,7.083a3.306,3.306,0,0,0,2.487,1.028,3.166,3.166,0,0,0,2.438-.976,3.592,3.592,0,0,0,0-4.762,3.485,3.485,0,0,0-4.874.034,3.346,3.346,0,0,0-.937,2.346A3.382,3.382,0,0,0,644.691,414.422Z" transform="translate(-572.447 -397.864)" fill="#fff"/>
      <path id="パス_7" data-name="パス 7" d="M724.443,415.44v-7.5h3.58v7.5a1.941,1.941,0,0,0,.75,1.636,3.1,3.1,0,0,0,3.612,0,1.946,1.946,0,0,0,.75-1.636v-7.5h3.579v7.5a5.06,5.06,0,0,1-1.807,4.141,7.062,7.062,0,0,1-8.655,0A5.058,5.058,0,0,1,724.443,415.44Z" transform="translate(-639.693 -400.036)" fill="#fff"/>
      <path id="パス_8" data-name="パス 8" d="M845.712,370.067h3.409v16.866h7.224v3.408H845.712Z" transform="translate(-736.643 -369.757)" fill="#fff"/>
      <path id="パス_9" data-name="パス 9" d="M922.814,405.266h3.511v13.188h-3.511v-.545a6.5,6.5,0,0,1-3.271.851,6.968,6.968,0,0,1-2.727-.528,8.41,8.41,0,0,1-2.726-2.1,6.862,6.862,0,0,1-.033-8.434,8,8,0,0,1,2.8-2.1,7.375,7.375,0,0,1,2.76-.544,6.194,6.194,0,0,1,1.72.238,5.7,5.7,0,0,1,1.482.647Zm-5.827,9a3.312,3.312,0,0,0,2.488,1.023,3.169,3.169,0,0,0,2.437-.971,3.561,3.561,0,0,0,0-4.737,3.5,3.5,0,0,0-4.874.034,3.314,3.314,0,0,0-.937,2.334A3.357,3.357,0,0,0,916.987,414.263Z" transform="translate(-790.137 -397.735)" fill="#fff"/>
      <path id="パス_10" data-name="パス 10" d="M1012.865,378.526a7.288,7.288,0,0,0-6.322-1.874,6.358,6.358,0,0,0-1.961.6v-8.045h-3.918v14.312a5.814,5.814,0,0,0,2.147,4.667,7.537,7.537,0,0,0,5.01,1.808,6.466,6.466,0,0,0,5.044-1.994,7.12,7.12,0,0,0,0-9.474Zm-2.829,6.593a2.76,2.76,0,0,1-2.215.955,3.417,3.417,0,0,1-2.13-.716,2.769,2.769,0,0,1-1.109-1.84v-2.688a4.061,4.061,0,0,1,1.79-.772,7.233,7.233,0,0,1,1.45-.12,2.86,2.86,0,0,1,2.265.87,3.051,3.051,0,0,1,.767,2.1A3.3,3.3,0,0,1,1010.036,385.119Z" transform="translate(-860.521 -369.068)" fill="#fff"/>
      <path id="パス_11" data-name="パス 11" d="M1086.993,407.339a6.634,6.634,0,0,1,5.01-2.113,7.139,7.139,0,0,1,2.726.53,6.4,6.4,0,0,1,2.249,1.533,6.771,6.771,0,0,1,1.432,2.249,6.973,6.973,0,0,1,.476,2.505,5.98,5.98,0,0,1-1.413,4.241,8.021,8.021,0,0,1-2.71,2.045,7.214,7.214,0,0,1-2.76.529,6.454,6.454,0,0,1-4.959-2.079,6.813,6.813,0,0,1-.051-9.44Zm2.488,7.083a3.3,3.3,0,0,0,2.488,1.028,3.164,3.164,0,0,0,2.437-.976,3.589,3.589,0,0,0,0-4.762,3.486,3.486,0,0,0-4.875.034,3.346,3.346,0,0,0-.937,2.346A3.386,3.386,0,0,0,1089.481,414.422Z" transform="translate(-928.04 -397.864)" fill="#fff"/>
    </g>
    <g id="グループ_2" data-name="グループ 2" transform="translate(36.778 324.42)">
      <path id="パス_12" data-name="パス 12" d="M56.136,362.615a19.1,19.1,0,1,1,19.358-19.1A19.252,19.252,0,0,1,56.136,362.615Zm0-34.512a15.415,15.415,0,1,0,15.623,15.414A15.537,15.537,0,0,0,56.136,328.1Z" transform="translate(-36.778 -324.42)" fill="#fff"/>
      <path id="長方形_1" data-name="長方形 1" d="M2.1,0h10.94a2.1,2.1,0,0,1,2.1,2.1v0a2.1,2.1,0,0,1-2.1,2.1H2.1A2.1,2.1,0,0,1,0,2.1v0A2.1,2.1,0,0,1,2.1,0Z" transform="translate(11.787 9.148)" fill="#fff"/>
      <path id="長方形_2" data-name="長方形 2" d="M2.1,0H8.468a2.1,2.1,0,0,1,2.1,2.1v0a2.1,2.1,0,0,1-2.1,2.1H2.1A2.1,2.1,0,0,1,0,2.1v0A2.1,2.1,0,0,1,2.1,0Z" transform="translate(11.787 16.996)" fill="#fff"/>
      <rect id="長方形_3" data-name="長方形 3" width="3.47" height="4.2" rx="1.735" transform="translate(11.787 24.846)" fill="#fff"/>
    </g>
  </g>
</svg>
