<svg height="37.636" viewBox="0 0 37.818 37.636" width="37.818" xmlns="http://www.w3.org/2000/svg"><g fill="#8653d8" fill-rule="evenodd"><path d="m8.756 27.636q-.215-.211-.434-.422c-1.485-1.424-2.959-2.849-4.342-4.376a7.76 7.76 0 0 0 -1.6-1.456 2.15 2.15 0 0 0 -1.347-.32 1.026 1.026 0 0 0 -.871.694 1.629 1.629 0 0 0 -.089.431 8.273 8.273 0 0 0 .007.947c.11 1.127.221 2.2.423 3.319.186 1.026.313 2.059.514 3.083a26.314 26.314 0 0 0 1.253 4.464 1.052 1.052 0 0 0 1.963-.757 24.2 24.2 0 0 1 -1.147-4.113c-.2-1.015-.325-2.039-.509-3.056-.12-.661-.205-1.309-.278-1.962l.12.135c1.417 1.564 2.925 3.025 4.446 4.483.569.546 1.119 1.108 1.7 1.645a5.18 5.18 0 0 0 .369.489 1.26 1.26 0 0 0 .534.328 1.048 1.048 0 0 0 1.226-.394 2.458 2.458 0 0 0 .43-1.561 21 21 0 0 0 -.434-2.637c-.46-3.468-1.2-6.922-1.4-10.42a1.052 1.052 0 1 0 -2.1.119c.2 3.551.949 7.057 1.416 10.578.023.188.083.454.15.759z" transform="translate(-.065 -6.607)"/><path d="m27.761 11.751a8.027 8.027 0 0 0 -3.346 1.411 5.355 5.355 0 0 0 -1.694 3.493 20.643 20.643 0 0 0 .271 5.214 26.594 26.594 0 0 0 .359 2.691 4.2 4.2 0 0 0 .987 1.987 2.762 2.762 0 0 0 3.121.37 7.025 7.025 0 0 0 3.131-2.6 1.052 1.052 0 0 0 -1.884-.937 4.57 4.57 0 0 1 -2.037 1.589 2 2 0 0 1 -.572.153c-.1.008-.19.022-.255-.044a2.614 2.614 0 0 1 -.521-1.385c-.129-.743-.165-1.519-.243-2.1a18.369 18.369 0 0 1 -.271-4.66 3.288 3.288 0 0 1 .976-2.166 5.974 5.974 0 0 1 2.517-.976 1.052 1.052 0 0 0 -.539-2.034z" transform="translate(-9.879 -5.098)"/><path d="m28.79 21.487a21.269 21.269 0 0 1 -2.9 1.377 1.052 1.052 0 1 0 .71 1.98 23.4 23.4 0 0 0 3.2-1.509 1.052 1.052 0 0 0 -1.006-1.848z" transform="translate(-10.988 -9.29)"/><path d="m46.445 15.316a33.869 33.869 0 0 0 -2.437-2.678 10.321 10.321 0 0 0 -1.449-1.046 1.568 1.568 0 0 0 -.834-.195 1.032 1.032 0 0 0 -.974.819 5.538 5.538 0 0 0 -.17 1.444 22.225 22.225 0 0 1 -1.922-4.538 1.329 1.329 0 0 0 -.069-.2.96.96 0 0 0 -.426-.474.994.994 0 0 0 -.963-.053 1.043 1.043 0 0 0 -.6 1.185c.014.068.135.551.17.74a1.049 1.049 0 0 0 .192.437 39.129 39.129 0 0 0 2.9 5.969 5.507 5.507 0 0 1 .528 1.3c.035.134.049.438.079.587a1.261 1.261 0 0 0 .221.507.989.989 0 0 0 1.152.38 1.022 1.022 0 0 0 .7-.643 6.956 6.956 0 0 0 .272-3.486c-.039-.357-.087-.713-.117-1.066a35.819 35.819 0 0 1 2.635 2.981 13.077 13.077 0 0 0 1.25 1.29 1.028 1.028 0 0 0 1.287-.076 2.153 2.153 0 0 0 .651-1.284 11.538 11.538 0 0 0 .017-2.171 42.14 42.14 0 0 0 -.788-8.345 1.052 1.052 0 1 0 -2.05.471 40.055 40.055 0 0 1 .734 7.924c.001.058.005.134.011.221z" transform="translate(-15.937 -2.561)"/><path d="m61.116 3.444c.381 1.844.763 3.67 1.013 5.566a1.052 1.052 0 1 0 2.086-.274c-.351-2.674-.959-5.212-1.469-7.85a1.039 1.039 0 0 0 -1.224-.865 1.013 1.013 0 0 0 -.868 1.011c0 .051.033.412.038.552.013.32.006.633-.01.954a1.051 1.051 0 0 0 .434.906z" transform="translate(-26.405 -.008)"/><path d="m64.664 24.26a1.051 1.051 0 0 0 -1.655-1.15 1.244 1.244 0 0 0 -.441 1.241 1.052 1.052 0 0 0 2.1-.091z" transform="translate(-27.23 -9.951)"/><path d="m27.055 55.206c-.107-.227-.194-.407-.214-.445-.977-1.828-2.038-3.632-3.192-5.353a1.052 1.052 0 0 0 -1.749 1.171c1.116 1.663 2.14 3.407 3.084 5.173a16.2 16.2 0 0 0 .9 1.83 1.445 1.445 0 0 0 .925.646 1.477 1.477 0 0 0 1.361-.676 17.368 17.368 0 0 0 1.478-3.232c.23-.641.426-1.313.606-1.967a29.025 29.025 0 0 0 .716-3.775 1.052 1.052 0 1 0 -2.084-.289 26.918 26.918 0 0 1 -.66 3.5c-.167.6-.346 1.225-.559 1.816-.067.181-.316.914-.612 1.601z" transform="translate(-9.48 -20.604)"/></g></svg>