<svg height="24" viewBox="0 0 86 24" width="86" xmlns="http://www.w3.org/2000/svg"><g fill="#fff" transform="translate(0 -8)"><path d="m47.07 26v-12.02h-2.87l-3.19 5.08-3.19-5.08h-2.88v12.02h2.62v-7.8l2.46 3.71h1.9l2.5-3.76v7.85z"/><path d="m59 20a3.67 3.67 0 0 0 -3.67-3.78 3.62 3.62 0 0 0 -3.69 3.78 3.67 3.67 0 0 0 3.67 3.78 3.62 3.62 0 0 0 3.69-3.78m-10.1 0a6.45 6.45 0 0 1 12.89 0 6.45 6.45 0 0 1 -12.89 0"/><path d="m68.25 23.61a3.44 3.44 0 0 0 3.65-3.61 3.46 3.46 0 0 0 -3.65-3.62h-2.07v7.24zm-4.73-9.61h4.73c3.81 0 6.44 2.59 6.44 6 0 3.38-2.63 6-6.44 6h-4.73z"/><path d="m76.77 13.98v12.02h9.23v-2.35h-6.58v-2.53h5.71v-2.35h-5.71v-2.44h6.49v-2.35z"/><path d="m27.96 8-13.98 8-13.98-8v24l6.99-4v-8l6.99 4 6.99-4v8l6.99 4z"/></g></svg>