<svg height="27.247" viewBox="0 0 75.708 27.247" width="75.708" xmlns="http://www.w3.org/2000/svg"><path d="m32.988 70.262c-4.926 5.785-9.65 12.96-9.7 18.323a6.348 6.348 0 0 0 2.173 5.115 10.531 10.531 0 0 0 7.112 2.6c3.563 0 7.1-1.432 9.871-2.541 4.665-1.865 56.235-24.259 56.235-24.259.5-.249.4-.56-.218-.4-.252.058-56.142 15.2-56.142 15.2a12.351 12.351 0 0 1 -3.253.466c-4.3.025-8.117-2.359-8.086-7.383a16.476 16.476 0 0 1 2.008-7.121z" fill="#fff" fill-rule="evenodd" opacity=".999" transform="translate(-23.29 -69.054)"/></svg>