<svg height="33.87" viewBox="0 0 46.574 33.87" width="46.574" xmlns="http://www.w3.org/2000/svg"><path d="m17.183 16.6c0 1.192-.125 1.787-.99 1.787-.9 0-1.045-.541-1.045-1.623v-9.514h-7.009v11.177a7 7 0 0 0 1.566 4.8 5.232 5.232 0 0 0 4.147 1.886 6.808 6.808 0 0 0 3.49-1.057c-.659 2.497-2.142 3.744-4.357 3.744a7.3 7.3 0 0 1 -2.453-.585 13.322 13.322 0 0 1 -2.393-1.115v5.8a16.823 16.823 0 0 0 2.394 1.239 10.617 10.617 0 0 0 3.8.729 9.581 9.581 0 0 0 7.341-3.319 10.393 10.393 0 0 0 2.514-7.329v-15.97h-7.005zm15.891-16.515c-8.318.749-7.752 9.644-7.752 9.644v15.554c4.522 0 6.783-2.171 6.783-5.177v-2.031h3.335v-6.766h-3.34v-.909a3.762 3.762 0 0 1 .749-2.443 2.475 2.475 0 0 1 1.967-.854c.558.006 1.583.191 1.79 1l.015.064v7.051a11.052 11.052 0 0 0 1.537 6.237 8.8 8.8 0 0 0 3.281 2.918 9.25 9.25 0 0 0 4.362 1.074c.171 0 .481 0 .768-.018v-7.167c-1.434 0-2.049-.265-2.505-.813a4.975 4.975 0 0 1 -.678-2.983h2.441v-7.216h-2.307c-.435-2.705-2.06-6.782-8.088-7.236 0 0-.714-.027-1.273-.007-.436.016-1.085.078-1.085.078zm-23.696 24.635.005.011a9.186 9.186 0 0 1 -2.374.984v.037l-.023-.033a5.724 5.724 0 0 1 -1.223.141 5.276 5.276 0 0 1 -4.183-1.9 7.062 7.062 0 0 1 -1.58-4.85v-18.641h7.009v18.642a7.054 7.054 0 0 0 1.575 4.845 6.126 6.126 0 0 0 .794.764z" fill="#fff"/></svg>