<svg height="35.49" viewBox="0 0 79.997 35.49" width="79.997" xmlns="http://www.w3.org/2000/svg"><path d="m40-26.225-11.637.775-3.963 10.3-1.7-9.925-3.787.25 2.974 14.725 3.988-.25 5.912-14.425-1.587 14.15 8.088-.512.375-3.263-4.3.275.287-2.512 4.3-.275.4-3.525-4.312.287.25-2.262 4.312-.288zm-26.65 16.663 3.537-.225 1.613-15.013-3.55.238zm-33.1 2.075 15.775-.963 1-2.038 4.925-.312.538 1.95 7.25-.463 1.212-11.487 3.038-.2.375-3.5-9.375.613-.363 3.487 2.787-.175-1.112 10.7-4.013-13.825-2.975.2-6.875 14.65.262-2.6-4.537.287.238-2.488 4.55-.287.338-3.488-4.55.288.212-2.238 4.55-.3.338-3.487-8.1.525-.325 3.325c-.475-2.5-2.8-3.125-5.312-2.963l-4.862.312-.35 3.85a6.122 6.122 0 0 0 -6.412-3.6 9.086 9.086 0 0 0 -8.437 8.175 6.383 6.383 0 0 0 7.05 7.275 9.3 9.3 0 0 0 7.11-4.474l-.337 3.638 3.525-.213.438-4.675zm-5.537-8.775-.338 3.725-3.375.212a4.853 4.853 0 0 1 -3.613 2.362c-2.675.162-3.762-1.9-3.587-3.9a4.744 4.744 0 0 1 4.325-4.162 3.124 3.124 0 0 1 3.287 1.975zm7.012-.963c-.162 1.75-1.825 1.9-3.6 2.012l.338-3.562c2.312-.15 3.412-.062 3.262 1.55zm2.638 8.85-2.763-4.175a5.676 5.676 0 0 0 3.488-3.325zm16.924-5.625-2.963.188 1.976-4.913zm-21.262-9.325 7.1-.463.787-8.275 4.7 7.912 3.125-.2.5-5.037c1.225 3.612 3.65 5.112 6.925 4.9 4.988-.325 6.613-3.587 7.45-4.75l-.412 3.938 3.55-.237.5-4.787 2.4 4.6 4.55-.3-3.15-4.85a6.017 6.017 0 0 0 4-6.2l1.975 5.374-.6 5.537 3.55-.238.6-5.537 5.45-9.8-3.875.275-2.875 5.713-1.613-5.4-4.025.275.55 1.488c-1.062-1.175-2.95-1.325-4.537-1.213l-4.912.338-.413 4a6.519 6.519 0 0 0 -6.675-3.788c-5.088.35-7.025 4.25-7.95 5.937l.5-5.15-3.562.237-.813 8.326-4.725-7.95-3.375.225-1.237 13.087-3.838-12.75-2.988.2-7.125 15.238 3.988-.262 1.012-2.275 4.95-.325zm34.575-10.262.363-3.6a5.683 5.683 0 0 1 2.862.25c.35.2.5.637.425 1.3a1.8 1.8 0 0 1 -.95 1.512 7.375 7.375 0 0 1 -2.7.538zm-13.638 4.337a3.411 3.411 0 0 1 -.9-2.912 4.33 4.33 0 0 1 1.613-3.05 4.67 4.67 0 0 1 2.75-1.15 3.311 3.311 0 0 1 1.525.313 5.989 5.989 0 0 1 1.388 1.013l3.9-.263-.15 1.5-7.888.537-.3 2.987 4.275-.287a5.9 5.9 0 0 1 -1.888 1.787 3.971 3.971 0 0 1 -1.662.513 3.179 3.179 0 0 1 -2.663-.988zm-25.162 1.025 1.937-4.9 1.037 4.7z" fill="#fff" transform="translate(39.997 41.737)"/></svg>