<svg height="35.387" viewBox="0 0 83.422 35.387" width="83.422" xmlns="http://www.w3.org/2000/svg"><path d="m129.875 72.979c-30.356-2.285-55.443 4.849-61.085 7.507-3.124 1.4-3.357 3.171-2.891 4.15.42.746 1.912 1.212 3.544.373 12.03-6.388 36.418-11.471 60.432-10.025a1 1 0 1 0 0-2.005zm7.507-8.953c-1.259 1.4-3.124 2.471-3.73 1.958-.56-.513 0-2.192 0-2.192 2.984-1.912 8.766-6.761 8.766-10.492 0-3.451-3.124-4.523-6.435-1.306a23.988 23.988 0 0 0 -5.642 10.072c-1.725 1.679-4.43 3.824-6.9 3.824-1.259 0-1.632-.886-1.446-2.1 2.1-.047 7.88-1.632 7.88-6.435a3.014 3.014 0 0 0 -.933-2.1 2.937 2.937 0 0 0 -2.192-.746c-2.611 0-5.969 2.658-7.6 6.388a6.1 6.1 0 0 1 -1.306-.42 15.972 15.972 0 0 0 1.026-2.844c.373-1.958-.466-3.171-2.1-3.031-1.026.093-2.285.979-2.518 3.031a5.689 5.689 0 0 0 .56 3.031c-.7 2.192-3.637 4.943-4.616 4.849s.14-4.01 1.119-6.9a5.437 5.437 0 0 0 1.259-1.958 1.208 1.208 0 0 0 -.466-1.585 3.035 3.035 0 0 0 -3.824 1.585 13.354 13.354 0 0 0 -1.026 2.192c-.793.979-2.1 2.192-2.471 2.1-.56-.373 1.259-2.751 1.026-4.057a2.109 2.109 0 0 0 -2.285-1.772c-1.632.233-3.824 3.311-3.824 3.311a5.856 5.856 0 0 0 .466-1.772c-.093-1.166-2.285-1.679-3.357.42a31.577 31.577 0 0 0 -1.632 6.248c-.466.979-2.285 3.824-3.73 3.917-1.166.093.28-5.036.466-5.316.653-.979 1.446-3.031 1.259-3.917a1.49 1.49 0 0 0 -.513-1.119 1.4 1.4 0 0 0 -1.212-.233 2.726 2.726 0 0 0 -1.725 1.306 2.274 2.274 0 0 0 -2.192-.793c-4.8.513-7.88 8.766-7.554 12.637.28 2.1 1.259 3.357 3.124 3.124 2.1-.28 3.824-3.264 3.824-3.264s.466 2.471 2.7 2.192a8.472 8.472 0 0 0 4.243-2.938 1.361 1.361 0 0 0 -.093.42c-.373 2.1 3.124 1.865 3.451.28 1.026-7.88 3.73-11.144 4.523-11.144.653 0-1.725 3.73-.373 5.129 1.026 1.259 2.891.28 4.43-1.026a13.242 13.242 0 0 0 -.466 3.031c-.093 2.192.7 3.964 2.891 3.917 2.891-.093 5.969-3.637 7.974-6.994a5.6 5.6 0 0 0 1.725.7 8.407 8.407 0 0 0 -.233 2.425c.187 2.565 2.005 3.544 4.1 3.451 2.471-.093 5.362-1.958 7.321-3.637a.663.663 0 0 1 -.093.28c-.186 1.259.093 3.544 1.912 3.637 2.1.187 5.689-1.958 7.507-4.15 1.547-.981.053-2.38-1.064-1.214zm1.958-10.678a.408.408 0 0 1 .373.42c0 2.192-5.642 6.9-5.642 6.9s3.685-7.32 5.27-7.32zm-13.569 4.616a.7.7 0 0 1 .513.187.526.526 0 0 1 .14.513c0 1.259-1.725 2.192-3.637 2.192 1.027-1.446 2.192-2.892 2.985-2.892zm-37.536 3.451c-.187 1.306-2.518 7.274-3.824 7.274-1.632.093.793-8.393 3.451-8.347.513 0 .513.373.373 1.073zm-20.424 1.585c1.539 0-1.259 7.88-.886 11.331s4.243 2.471 3.964.42c-.466-3.357 1.912-14.082 4.243-14.082 1.725 0-1.912 7.367-1.166 11.937.466 3.031 4.616 2.1 4.15.187-1.259-6.015 2.984-11.844 2.425-16.087-.28-1.772-1.259-2.751-2.471-2.751-3.917 0-7.088 7.787-7.088 7.787s.373-4.43-2.8-4.616c-4.57-.233-9.279 11.1-9.186 21.356.093 3.264 4.243 2.751 3.964.093-.231-4.575 2.473-15.575 4.851-15.575z" fill="#fff" transform="translate(-58.997 -50.07)"/></svg>