<svg height="55.762" viewBox="0 0 55.762 55.762" width="55.762" xmlns="http://www.w3.org/2000/svg"><g fill="#fff" fill-rule="evenodd"><path d="m30.674 2.865a27.881 27.881 0 1 0 27.881 27.881 27.881 27.881 0 0 0 -27.881-27.881zm0 53.262a25.381 25.381 0 1 1 25.381-25.381 25.381 25.381 0 0 1 -25.381 25.381z" transform="translate(-2.793 -2.865)"/><path d="m77.692 30.921a19.888 19.888 0 0 1 11.108 0l-5.551 12.3z" transform="translate(-55.368 -22.003)"/><path d="m60.414 40.477a19.879 19.879 0 0 1 5.353 5.023l-9.11 20.16-3.516-7.817h-6.661l-3.515 7.817-9.1-20.179a19.861 19.861 0 0 1 5.338-5l7.277 16.135h6.684zm-29.691 11.558a19.788 19.788 0 0 0 10.269 22.8z" transform="translate(-21.929 -29.267)"/><path d="m78 103.458a19.889 19.889 0 0 0 10.924 0l-5.459-12.12zm14.283-1.306a19.79 19.79 0 0 0 10.281-22.752z" transform="translate(-55.584 -56.588)"/></g></svg>