<svg xmlns="http://www.w3.org/2000/svg" width="23.477" height="16.434" viewBox="0 0 23.477 16.434">
  <path id="パス_36" data-name="パス 36" d="M205.021,121.725a2.94,2.94,0,0,0-2.076-2.075c-1.831-.491-9.173-.491-9.173-.491s-7.341,0-9.172.491a2.94,2.94,0,0,0-2.076,2.075,32.762,32.762,0,0,0,0,11.3A2.941,2.941,0,0,0,184.6,135.1c1.83.49,9.172.49,9.172.49s7.341,0,9.173-.49a2.941,2.941,0,0,0,2.076-2.076,32.827,32.827,0,0,0,0-11.3Zm-13.6,9.173v-7.043l6.1,3.522Z" transform="translate(-182.034 -119.159)"/>
</svg>
