<svg xmlns="http://www.w3.org/2000/svg" width="162" height="52" viewBox="0 0 162 52">
  <g id="グループ_2487" data-name="グループ 2487" transform="translate(-419 -510)">
    <g id="長方形_2761" data-name="長方形 2761" transform="translate(419 510)" stroke="#c7c7c7" stroke-width="1">
      <rect width="162" height="52" rx="6" stroke="none"/>
      <rect x="0.5" y="0.5" width="161" height="51" rx="5.5" fill="none"/>
    </g>
    <g id="グループ_2447" data-name="グループ 2447" transform="translate(444 521.873)">
      <g id="グループ_2445" data-name="グループ 2445" transform="translate(30.781)">
        <path id="パス_121" data-name="パス 121" d="M666.076,832.326h-5.1l-1.224,3.617h-2.161l4.831-13.379h2.245l4.831,13.379h-2.2Zm-4.572-1.668h4.042l-1.992-5.868H663.5Z" transform="translate(-657.591 -822.34)" fill="#fff"/>
        <path id="パス_122" data-name="パス 122" d="M676.181,830.062c0,3.031-1.622,4.979-4.071,4.979a3.306,3.306,0,0,1-3.068-1.706H669v4.831h-2V825.184h1.938v1.622h.037a3.462,3.462,0,0,1,3.106-1.724C674.549,825.082,676.181,827.04,676.181,830.062Zm-2.059,0c0-1.975-1.021-3.273-2.578-3.273-1.53,0-2.559,1.325-2.559,3.273,0,1.965,1.029,3.281,2.559,3.281C673.1,833.343,674.123,832.055,674.123,830.062Z" transform="translate(-653.844 -821.337)" fill="#fff"/>
        <path id="パス_123" data-name="パス 123" d="M683.859,830.062c0,3.031-1.624,4.979-4.071,4.979a3.31,3.31,0,0,1-3.07-1.706h-.046v4.831h-2V825.184h1.938v1.622h.036a3.463,3.463,0,0,1,3.106-1.724C682.225,825.082,683.859,827.04,683.859,830.062Zm-2.059,0c0-1.975-1.021-3.273-2.578-3.273-1.53,0-2.559,1.325-2.559,3.273,0,1.965,1.029,3.281,2.559,3.281C680.779,833.343,681.8,832.055,681.8,830.062Z" transform="translate(-650.784 -821.337)" fill="#fff"/>
        <path id="パス_124" data-name="パス 124" d="M686.9,832.279c.148,1.326,1.438,2.2,3.2,2.2,1.688,0,2.9-.871,2.9-2.067,0-1.039-.731-1.66-2.466-2.087L688.8,829.9c-2.457-.593-3.6-1.743-3.6-3.607,0-2.308,2.011-3.894,4.867-3.894,2.828,0,4.766,1.586,4.832,3.894h-2.021c-.122-1.334-1.225-2.141-2.838-2.141s-2.717.817-2.717,2c0,.945.7,1.5,2.429,1.929l1.474.362c2.745.649,3.885,1.751,3.885,3.709,0,2.5-1.993,4.07-5.165,4.07-2.966,0-4.97-1.53-5.1-3.95Z" transform="translate(-646.728 -822.404)" fill="#fff"/>
        <path id="パス_125" data-name="パス 125" d="M696.255,823.5v2.308h1.855V827.4h-1.855v5.377c0,.835.371,1.225,1.186,1.225a6.5,6.5,0,0,0,.659-.046v1.576a5.594,5.594,0,0,1-1.112.092c-1.975,0-2.745-.743-2.745-2.633V827.4h-1.418v-1.586h1.418V823.5Z" transform="translate(-643.548 -821.965)" fill="#fff"/>
        <path id="パス_126" data-name="パス 126" d="M697.371,830.067c0-3.068,1.807-5,4.625-5s4.628,1.928,4.628,5-1.79,5-4.628,5S697.371,833.144,697.371,830.067Zm7.212,0c0-2.1-.965-3.348-2.587-3.348s-2.586,1.251-2.586,3.348c0,2.113.964,3.347,2.586,3.347S704.583,832.18,704.583,830.067Z" transform="translate(-641.736 -821.341)" fill="#fff"/>
        <path id="パス_127" data-name="パス 127" d="M705.167,825.184h1.91v1.66h.046a2.326,2.326,0,0,1,2.347-1.762,3.016,3.016,0,0,1,.685.076v1.873a2.781,2.781,0,0,0-.9-.122,2.018,2.018,0,0,0-2.087,2.245v5.786h-2Z" transform="translate(-638.629 -821.337)" fill="#fff"/>
        <path id="パス_128" data-name="パス 128" d="M717.843,832.078c-.27,1.772-1.994,2.986-4.2,2.986-2.838,0-4.6-1.9-4.6-4.951s1.771-5.043,4.515-5.043c2.7,0,4.4,1.853,4.4,4.811v.685h-6.891v.121a2.541,2.541,0,0,0,2.625,2.762,2.2,2.2,0,0,0,2.252-1.372Zm-6.769-2.91h4.877a2.345,2.345,0,0,0-2.393-2.475A2.47,2.47,0,0,0,711.074,829.168Z" transform="translate(-637.084 -821.341)" fill="#fff"/>
      </g>
      <g id="グループ_2444" data-name="グループ 2444" transform="translate(30.728 18.57)">
        <path id="パス_129" data-name="パス 129" d="M660.136,844.857l.083-1.031a3.948,3.948,0,0,0,1.2.19c.368,0,.509-.035.688-.285a5.756,5.756,0,0,0,.544-2.915c0-1.066-.331-1.375-1.172-1.375-.19,0-.4.013-.64.025a17.267,17.267,0,0,1-2.228,5.189l-.983-.533a13.944,13.944,0,0,0,2.073-4.551,17.185,17.185,0,0,0-1.93.322l-.214-1.045c.723-.13,1.587-.248,2.393-.319a21.905,21.905,0,0,0,.368-2.382l1.162.13c-.108.722-.238,1.446-.4,2.157h.463c1.5,0,2.228.747,2.228,2.334a7.357,7.357,0,0,1-.687,3.52,1.458,1.458,0,0,1-1.422.758A6.474,6.474,0,0,1,660.136,844.857Zm3.815-6.386.866-.582a6.672,6.672,0,0,1,2.026,4.386l-1.138.176A5.526,5.526,0,0,0,663.951,838.471Z" transform="translate(-657.553 -835.496)" fill="#fff"/>
        <path id="パス_130" data-name="パス 130" d="M667.542,845.034l-.236-1.067c.3.025.687.036.924.036,2.345,0,3.235-.663,3.235-1.648,0-.782-.509-1.232-1.647-1.232a5.078,5.078,0,0,0-3.246,1.589l-.913-.4c0-2.264.238-3.308,1.007-4.445l1.055.344a4.637,4.637,0,0,0-.9,3.081,6.061,6.061,0,0,1,3.236-1.1c1.587,0,2.571.817,2.571,2.144,0,1.682-1.327,2.715-4.515,2.715C667.957,845.046,667.732,845.034,667.542,845.034Zm-1.1-7.868.3-1.043a32.516,32.516,0,0,1,4.657,1.067l-.284,1.031A26.64,26.64,0,0,0,666.44,837.165Z" transform="translate(-654.322 -835.507)" fill="#fff"/>
        <path id="パス_131" data-name="パス 131" d="M673.5,844.392a7.484,7.484,0,0,0,3.187-2.063,13.392,13.392,0,0,0-2.215-1.492l.652-.818a14.506,14.506,0,0,1,2.252,1.421,7.486,7.486,0,0,0,1.161-2.737h-3.022a12.188,12.188,0,0,1-2.583,2.975l-.864-.745a11.245,11.245,0,0,0,3.295-4.527l1.137.273c-.13.331-.26.674-.415,1h2.94l.84.39a8.989,8.989,0,0,1-5.675,7.253Zm5-8.273.663-.32a7.138,7.138,0,0,1,.842,1.457l-.747.345A6.5,6.5,0,0,0,678.5,836.119Zm1.481-.119.675-.319a7.949,7.949,0,0,1,.866,1.494l-.747.319A6.542,6.542,0,0,0,679.985,836Z" transform="translate(-651.767 -835.682)" fill="#fff"/>
        <path id="パス_132" data-name="パス 132" d="M682.179,845.082l-.6-.959a4.965,4.965,0,0,0,4.171-5.225h-4.978v2.382h-1.2v-3.39h2.975v-1.741h1.2v1.741h2.217l1.089.309C686.907,841.563,685.783,844.135,682.179,845.082Z" transform="translate(-648.777 -835.496)" fill="#fff"/>
        <path id="パス_133" data-name="パス 133" d="M686.568,837.73l.663-.973a14.709,14.709,0,0,1,2.914,1.766l-.758,1.02A13.894,13.894,0,0,0,686.568,837.73Zm.224,5.842a9.214,9.214,0,0,0,6.839-4.93l.782.877a10.027,10.027,0,0,1-7.169,5.155Z" transform="translate(-645.989 -835.253)" fill="#fff"/>
        <path id="パス_134" data-name="パス 134" d="M701.245,844.047h-7.454v-7.052h7.454Zm-6.28-5.962v4.871h5.1v-4.871Z" transform="translate(-643.11 -835.159)" fill="#fff"/>
        <path id="パス_135" data-name="パス 135" d="M709.14,840.118h-8.379V838.91h8.379Z" transform="translate(-640.332 -834.395)" fill="#fff"/>
        <path id="パス_136" data-name="パス 136" d="M708.79,836.23h1.172v3.034a36.372,36.372,0,0,1,4.527,2.264l-.663,1.042a28.775,28.775,0,0,0-3.864-2.073v4.573H708.79Zm2.785.641.7-.331a7.777,7.777,0,0,1,.842,1.611l-.771.344A6.987,6.987,0,0,0,711.575,836.871Zm1.35-.511.712-.331a7.664,7.664,0,0,1,.889,1.611l-.77.344A7.7,7.7,0,0,0,712.924,836.36Z" transform="translate(-637.132 -835.544)" fill="#fff"/>
      </g>
      <g id="グループ_2446" data-name="グループ 2446" transform="translate(0 0.124)">
        <g id="グループ_19" data-name="グループ 19">
          <path id="パス_137" data-name="パス 137" d="M654.207,835.186a6.229,6.229,0,0,1,2.966-5.226,6.375,6.375,0,0,0-5.024-2.716c-2.113-.222-4.162,1.264-5.24,1.264-1.1,0-2.755-1.242-4.541-1.206a6.69,6.69,0,0,0-5.631,3.433c-2.433,4.215-.618,10.41,1.713,13.816,1.166,1.667,2.53,3.531,4.315,3.464,1.745-.071,2.4-1.113,4.506-1.113,2.087,0,2.7,1.113,4.519,1.071,1.874-.029,3.055-1.676,4.18-3.359a13.818,13.818,0,0,0,1.912-3.892A6.02,6.02,0,0,1,654.207,835.186Z" transform="translate(-635.582 -820.608)" fill="#fff"/>
          <path id="パス_138" data-name="パス 138" d="M647.611,826.887a6.138,6.138,0,0,0,1.4-4.394,6.241,6.241,0,0,0-4.038,2.089,5.836,5.836,0,0,0-1.439,4.231A5.159,5.159,0,0,0,647.611,826.887Z" transform="translate(-632.424 -822.493)" fill="#fff"/>
        </g>
      </g>
    </g>
  </g>
</svg>
