<svg xmlns="http://www.w3.org/2000/svg" width="20.03" height="20.03" viewBox="0 0 20.03 20.03">
  <path id="パス_2298" data-name="パス 2298" d="M10.015-10.564a5,5,0,0,1,2.571.693,5.157,5.157,0,0,1,1.878,1.878,5,5,0,0,1,.693,2.571,5,5,0,0,1-.693,2.571A5.157,5.157,0,0,1,12.586-.974a5,5,0,0,1-2.571.693A5,5,0,0,1,7.444-.974,5.157,5.157,0,0,1,5.566-2.851a5,5,0,0,1-.693-2.571,5,5,0,0,1,.693-2.571A5.157,5.157,0,0,1,7.444-9.871,5,5,0,0,1,10.015-10.564Zm0,8.5a3.23,3.23,0,0,0,2.37-.984,3.23,3.23,0,0,0,.984-2.37,3.23,3.23,0,0,0-.984-2.37,3.23,3.23,0,0,0-2.37-.984,3.23,3.23,0,0,0-2.37.984,3.23,3.23,0,0,0-.984,2.37,3.23,3.23,0,0,0,.984,2.37A3.23,3.23,0,0,0,10.015-2.069Zm6.572-8.719a1.393,1.393,0,0,1-.38.85,1.089,1.089,0,0,1-.827.358,1.161,1.161,0,0,1-.85-.358,1.161,1.161,0,0,1-.358-.85,1.161,1.161,0,0,1,.358-.85,1.161,1.161,0,0,1,.85-.358,1.161,1.161,0,0,1,.85.358A1.161,1.161,0,0,1,16.588-10.788Zm3.4,1.207q.045,1.252.045,4.158t-.067,4.18a8.432,8.432,0,0,1-.38,2.213,5.211,5.211,0,0,1-1.23,1.945,5.211,5.211,0,0,1-1.945,1.23,8.432,8.432,0,0,1-2.213.38q-1.274.067-4.18.067t-4.18-.067A7.3,7.3,0,0,1,3.622,4.1,4.766,4.766,0,0,1,1.677,2.916,5.211,5.211,0,0,1,.447.971a8.432,8.432,0,0,1-.38-2.213Q0-2.516,0-5.422T.067-9.6a8.432,8.432,0,0,1,.38-2.213,5.211,5.211,0,0,1,1.23-1.945,5.211,5.211,0,0,1,1.945-1.23,8.432,8.432,0,0,1,2.213-.38q1.274-.067,4.18-.067t4.18.067a8.432,8.432,0,0,1,2.213.38,5.211,5.211,0,0,1,1.945,1.23,5.211,5.211,0,0,1,1.23,1.945A9.1,9.1,0,0,1,19.986-9.58ZM17.84.48A9.414,9.414,0,0,0,18.2-1.935q.045-.984.045-2.772V-6.138q0-1.833-.045-2.772a8.971,8.971,0,0,0-.358-2.414,3.227,3.227,0,0,0-1.923-1.923A8.972,8.972,0,0,0,13.5-13.6q-.984-.045-2.772-.045H9.3q-1.788,0-2.772.045a9.414,9.414,0,0,0-2.414.358,3.227,3.227,0,0,0-1.923,1.923A8.972,8.972,0,0,0,1.833-8.91q-.045.984-.045,2.772v1.431q0,1.788.045,2.772A9.414,9.414,0,0,0,2.191.48,3.389,3.389,0,0,0,4.113,2.4a9.414,9.414,0,0,0,2.414.358Q7.511,2.8,9.3,2.8h1.431q1.833,0,2.772-.045A8.971,8.971,0,0,0,15.917,2.4,3.389,3.389,0,0,0,17.84.48Z" transform="translate(0 15.437)"/>
</svg>
