<svg xmlns="http://www.w3.org/2000/svg" width="500.064" height="490.991" viewBox="0 0 500.064 490.991">
  <g id="グループ_2521" data-name="グループ 2521" transform="translate(-494 -253)">
    <path id="パス_41238" data-name="パス 41238" d="M371.074,390.7q-.183-4.643-.4-9.475.953.148,1.829.256a14.058,14.058,0,0,0,3.513,0q.879-.109,1.831-.256-.222,4.829-.4,9.475t-.183,9.478v12.587q0,4.833.183,9.518t.4,9.215c-1.125-.1-2.319-.145-3.588-.145s-2.462.047-3.585.145q.218-4.534.4-9.215t.183-9.518v-6.582q-3.953-.077-7.649-.113t-7.646-.038q-3.95,0-7.646.038t-7.649.113v6.582q0,4.833.185,9.518t.4,9.215q-1.685-.148-3.585-.145t-3.585.145q.218-4.534.4-9.215t.183-9.518V400.18q0-4.829-.183-9.478t-.4-9.475c.631.1,1.243.183,1.829.256a14.058,14.058,0,0,0,3.513,0c.586-.073,1.193-.157,1.829-.256q-.218,4.829-.4,9.475t-.185,9.478v2.561q3.953.077,7.649.15t7.646.073q3.95,0,7.646-.073t7.649-.15V400.18Q371.257,395.351,371.074,390.7Z" transform="translate(162.464 311.534)" fill="#fff"/>
    <path id="パス_41239" data-name="パス 41239" d="M361.972,390.7q-.183-4.643-.4-9.475c.631.1,1.243.183,1.829.256a14.058,14.058,0,0,0,3.513,0c.586-.073,1.193-.157,1.829-.256q-.218,4.829-.4,9.475t-.185,9.478v12.587q0,4.833.185,9.518t.4,9.215q-1.685-.148-3.585-.145t-3.585.145q.218-4.534.4-9.215t.183-9.518V400.18Q362.155,395.351,361.972,390.7Z" transform="translate(199.432 311.534)" fill="#fff"/>
    <path id="パス_41240" data-name="パス 41240" d="M377.446,421.989q3.183-4.537,6.4-9.112t6.293-9q3.074-4.428,5.635-8.2t4.465-6.587q1.9-2.814,2.856-4.282c-.879-.047-1.756-.085-2.636-.11s-1.709-.035-2.488-.035q-2.638,0-5.855.073t-6.476.256q-3.257.186-6.221.366t-5.013.4a7.211,7.211,0,0,0,0-4.535q3.584.292,11.344.331t19.173.035q1.973,0,3.951-.11t3.878-.256v1.318a60.53,60.53,0,0,0-4.1,5.048q-2.631,3.51-5.817,7.977t-6.624,9.44q-3.44,4.98-6.511,9.513t-5.452,8.162q-2.378,3.619-3.477,5.377c1.172.1,2.232.157,3.187.183s1.911.04,2.889.04q2.779,0,6.476-.113t7.353-.331q3.661-.218,6.915-.436t5.161-.441q-.148.661-.256,1.247a6.344,6.344,0,0,0-.11,1.168,7.076,7.076,0,0,0,.366,2.12q-2.635-.07-4.866-.106t-4.282-.04H381.986q-3.478,0-6.331.04t-4.244.106v-1.022Q374.263,426.524,377.446,421.989Z" transform="translate(212.665 311.534)" fill="#fff"/>
    <path id="パス_41241" data-name="パス 41241" d="M439.682,432.046a13.582,13.582,0,0,0-1.937-.145h-3.881a13.588,13.588,0,0,0-1.939.145c-.342-1.116-.8-2.474-1.391-4.059s-1.233-3.243-1.939-4.978-1.426-3.487-2.16-5.266-1.414-3.48-2.049-5.086q-2.339-.074-4.755-.11t-4.828-.038q-2.272,0-4.467.038c-1.461.026-2.952.061-4.465.11q-2.342,5.7-4.244,10.868t-2.851,8.521a25.3,25.3,0,0,0-5.417,0q5.927-12.8,11.562-25.465t11.342-25.76h1.391q1.759,4.245,3.806,9.185t4.171,9.989q2.124,5.054,4.244,10.024t3.988,9.26q1.864,4.281,3.365,7.646T439.682,432.046Zm-32.417-22.754c1.266,0,2.584.021,3.951.073s2.682.073,3.951.073q2.047,0,4.1-.04t4.1-.106l-8.122-18.59Z" transform="translate(242.182 310.988)" fill="#fff"/>
    <path id="パス_41242" data-name="パス 41242" d="M419.454,431.5q.218-4.534.4-9.215t.185-9.518V400.18q0-4.829-.185-9.478t-.4-9.475q.946.148,1.829.256a14.039,14.039,0,0,0,3.51,0c.589-.073,1.2-.157,1.829-.256q-.218,4.829-.4,9.475t-.185,9.478v4.026c0,.394.145.586.438.586.195,0,.537-.218,1.027-.659q2.561-2.2,5.377-4.978t5.672-5.782q2.853-3,5.635-6.108t5.341-6.038c.537.1,1.048.183,1.538.256a9.609,9.609,0,0,0,1.463.11,13.8,13.8,0,0,0,1.756-.11c.586-.073,1.17-.157,1.756-.256q-2.564,2.195-5.782,5.2t-6.476,6.146q-3.257,3.148-6.221,6.183t-4.938,5.309q5.926,6.662,11.966,13.576T456.847,431.5a16.426,16.426,0,0,0-2.195-.145h-4.207a14.093,14.093,0,0,0-2.014.145q-2.634-3-5.818-6.877t-6.218-7.5q-3.039-3.626-5.489-6.516t-3.623-4.059c-.392-.389-.685-.586-.879-.586-.244,0-.366.145-.366.441v6.364q0,4.833.185,9.518t.4,9.215q-1.681-.148-3.583-.145T419.454,431.5Z" transform="translate(277.274 311.534)" fill="#fff"/>
    <path id="パス_41243" data-name="パス 41243" d="M480.149,405.01q0-10.39-.073-16.027a74.7,74.7,0,0,0-.366-7.757q.8.148,1.533.256a9.663,9.663,0,0,0,1.466.11,7.918,7.918,0,0,0,2.195-.366q-.218,2.561-.438,6.111t-.366,7.609q-.148,4.062-.293,8.348t-.218,8.3a26.394,26.394,0,0,1-1.5,8.781,18.376,18.376,0,0,1-4.059,6.587,16.851,16.851,0,0,1-6.476,4.1,25.848,25.848,0,0,1-8.819,1.393q-10.977,0-15.954-4.978T441.8,411.742q0-3.436.183-6.111t.183-5.452q0-6.145-.145-10.9t-.293-8.05c.586.1,1.217.183,1.9.256a17.46,17.46,0,0,0,1.9.11,10.867,10.867,0,0,0,1.576-.11q.767-.109,1.573-.256-.148,1.611-.293,4.209t-.293,5.89q-.148,3.292-.218,7.1t-.073,7.907c0,1.655.023,3.379.073,5.156a35.652,35.652,0,0,0,.511,5.194,21.783,21.783,0,0,0,1.426,4.833,11.893,11.893,0,0,0,2.818,4.026,12.947,12.947,0,0,0,4.61,2.706,20.707,20.707,0,0,0,6.88.99,17.223,17.223,0,0,0,6.77-1.172,12.905,12.905,0,0,0,4.5-3.072,14.032,14.032,0,0,0,2.744-4.389,24.719,24.719,0,0,0,1.428-5.2,40.567,40.567,0,0,0,.513-5.412C480.123,408.185,480.149,406.523,480.149,405.01Z" transform="translate(307.23 311.534)" fill="#fff"/>
    <path id="パス_41244" data-name="パス 41244" d="M468.909,400.18q0-4.829-.183-9.478t-.4-9.475q2.121.148,4.169.256t4.171.11q2.125,0,4.171-.183t4.171-.183a28.446,28.446,0,0,1,5.855.584,14.266,14.266,0,0,1,4.865,1.941,9.807,9.807,0,0,1,3.294,3.548,11.3,11.3,0,0,1,1.208,5.489,11.179,11.179,0,0,1-1.574,6.036A14.7,14.7,0,0,1,494.814,403a18.931,18.931,0,0,1-4.865,2.561,24.106,24.106,0,0,1-4.723,1.208q.883,1.1,2.418,3.074t3.438,4.357q1.9,2.378,3.953,4.973t3.951,4.976c1.268,1.59,2.464,3.037,3.585,4.357s2.023,2.317,2.708,3a16.426,16.426,0,0,0-2.195-.145h-4.319a14.876,14.876,0,0,0-2.122.145q-1.094-1.534-3.33-4.608t-4.938-6.587q-2.708-3.514-5.524-6.99t-5.159-5.89h-2.783v5.342q0,4.833.185,9.518t.4,9.215q-1.681-.148-3.583-.145t-3.585.145q.218-4.534.4-9.215t.183-9.518Zm6,4.171a14.23,14.23,0,0,0,2.232.3c.8.047,1.7.073,2.673.073a23.013,23.013,0,0,0,4.718-.513,13.662,13.662,0,0,0,4.5-1.791,10.656,10.656,0,0,0,3.4-3.442,10.067,10.067,0,0,0,1.358-5.452,9.469,9.469,0,0,0-1.062-4.72,8.5,8.5,0,0,0-2.744-2.964,10.519,10.519,0,0,0-3.66-1.5,19.481,19.481,0,0,0-3.878-.4q-2.564,0-4.244.11t-2.856.258q-.147,4.024-.293,7.977t-.145,7.9Z" transform="translate(342.996 311.534)" fill="#fff"/>
    <path id="パス_41245" data-name="パス 41245" d="M491.143,390.7q-.183-4.643-.4-9.475.95.148,1.829.256a14.058,14.058,0,0,0,3.513,0q.879-.109,1.829-.256-.218,4.829-.4,9.475t-.183,9.478v12.587q0,4.833.183,9.518t.4,9.215q-1.685-.148-3.585-.145t-3.585.145q.218-4.534.4-9.215t.185-9.518V400.18Q491.328,395.351,491.143,390.7Z" transform="translate(373.143 311.534)" fill="#fff"/>
    <path id="パス_41246" data-name="パス 41246" d="M542.8,388.066a19.865,19.865,0,0,0-3.658-2.3,22.881,22.881,0,0,0-4.465-1.611,21.309,21.309,0,0,0-5.232-.621,25.082,25.082,0,0,0-8.453,1.39,18.041,18.041,0,0,0-6.8,4.279,20.092,20.092,0,0,0-4.54,7.32,30.206,30.206,0,0,0-1.646,10.5,29.905,29.905,0,0,0,1.466,9.658,19.387,19.387,0,0,0,4.279,7.281,18.945,18.945,0,0,0,6.88,4.575,24.734,24.734,0,0,0,9.185,1.609q1.537,0,3.22-.145t3.257-.441a23.225,23.225,0,0,0,2.926-.727,10.631,10.631,0,0,0,2.305-1.029q.074-2.191.11-4.39t.038-4.462c0-1.709-.038-3.414-.113-5.123s-.157-3.341-.253-4.9a17.893,17.893,0,0,0,3.513.368c.537,0,1.072-.026,1.609-.077a7.721,7.721,0,0,0,1.538-.291q-.148,1.681-.22,5.306t-.073,9.55c0,.978.012,1.963.035,2.964s.038,1.988.038,2.964q-1.537.584-3.841,1.208A46.548,46.548,0,0,1,539,431.94q-2.6.4-5.194.732a38.194,38.194,0,0,1-4.72.331,40.768,40.768,0,0,1-11.748-1.576,22.978,22.978,0,0,1-8.891-4.866,21.8,21.8,0,0,1-5.635-8.2,30.205,30.205,0,0,1-1.977-11.34,28.379,28.379,0,0,1,2.049-11.089,22.879,22.879,0,0,1,5.782-8.233,25.061,25.061,0,0,1,9.037-5.123,37.255,37.255,0,0,1,11.747-1.756,49.041,49.041,0,0,1,6.622.4,35.8,35.8,0,0,1,5.123,1.062,35.243,35.243,0,0,1,3.916,1.39q1.681.732,3,1.393a12.387,12.387,0,0,0-1.062,2.633,16.793,16.793,0,0,0-.621,3h-.877A18.95,18.95,0,0,0,542.8,388.066Z" transform="translate(386.711 310.988)" fill="#fff"/>
    <path id="パス_41247" data-name="パス 41247" d="M528.811,390.595q-.183-4.685-.4-9.368,3.292.148,6.549.256t6.549.11q3.3,0,6.514-.11t6.512-.256a11.153,11.153,0,0,0,0,4.39q-2.342-.144-4.282-.293t-4.1-.291q-2.156-.148-4.72-.258t-6.146-.108q-.074,2.342-.183,4.462t-.11,4.83q0,2.852.037,5.562t.035,4.1q3.218,0,5.782-.077t4.685-.178q2.117-.109,3.914-.223c1.2-.073,2.331-.155,3.4-.253a11.59,11.59,0,0,0-.218,2.265,11.254,11.254,0,0,0,.218,2.2c-1.266-.145-2.743-.27-4.427-.363s-3.365-.159-5.049-.185-3.271-.047-4.755-.073-2.673-.037-3.552-.037q0,.661-.035,1.426t-.037,1.941v7.246q0,4.171.037,6.88t.108,4.1h5.126q2.779,0,5.449-.113t5.051-.291a33.328,33.328,0,0,0,4.134-.549,5.12,5.12,0,0,0-.18,1.13c-.026.417-.038.8-.038,1.135a6.78,6.78,0,0,0,.218,1.9q-3.292-.148-6.549-.145H535.067q-3.292,0-6.657.145.218-4.674.4-9.328t.183-9.478V400.107Q528.994,395.278,528.811,390.595Z" transform="translate(423.799 311.534)" fill="#fff"/>
    <path id="パス_41248" data-name="パス 41248" d="M352.1,327.295a4.733,4.733,0,0,0,4.232-1.941c.912-1.376,1.372-1.831,2.059-1.831.912,0,7.548,3.773,7.548,6.059,0,.575-.915,1.374-2.176,2.633s-1.257,2.286-1.257,11.9c0,10.866.46,58.564.46,68.288,0,8.233-6.064,10.978-9.152,10.978-1.257,0-1.6-.687-2.174-1.827-1.716-3.205-6.4-6.181-6.636-6.294-.225,0-.57-.115-.57-.457,0-.227.228-.227.46-.227,1.257,0,6.978.227,8.118,0,2.633-.342,2.633-2.633,2.633-6.751,0-3.89.228-20.7.228-24.135a2.9,2.9,0,0,0-3.316-3.205H347.18c-3.088,0-3.088.345-3.89,8.008-.687,6.866-2.518,20.932-9.152,31.573a15.428,15.428,0,0,1-.915,1.257.243.243,0,0,1-.227-.227,6.728,6.728,0,0,1,.227-1.489c2.973-13.839,4.232-24.248,4.232-53.187,0-24.25-.917-33.172-1.259-36.148-.112-1.029-.914-5.257-.914-6.176a1,1,0,0,1,1.029-1.144c.919,0,1.489.342,6.519,2.976a10.61,10.61,0,0,0,5.494,1.372Zm-4.462,28.6a2.75,2.75,0,0,0-2.743,1.257c-.46.8-.8,15.1-.8,16.587,0,2.4.687,3.775,3.2,3.775h5.489c3.088,0,3.088-2.174,3.088-4.35,0-1.484.115-14.3-.228-15.438-.46-1.831-2.291-1.831-2.976-1.831Zm.113-25.509c-1.029,0-3.43,0-3.43,3.205,0,2.516.232,13.384.232,15.553,0,1.6.11,3.775,3.43,3.775h4.232c1.029,0,3.431,0,3.431-3.316,0-2.286,0-15.9-.115-16.815-.345-2.4-2.286-2.4-3.43-2.4Zm42.666,70.806c.117,0,.8-.227.914-.227a.508.508,0,0,1,.46.342c0,1.029-17.5,12.81-18.531,13.612-.46.342-2.176,2.514-2.746,2.514-1.487,0-6.064-9.379-6.064-9.949a.422.422,0,0,1,.46-.46c.115,0,.227,0,1.029.46a5.852,5.852,0,0,0,1.946.342,10.249,10.249,0,0,0,1.944-.228C374.518,406.679,379.777,404.852,390.416,401.189Zm-23.793-67.031c-.455-.455-.57-.57-.57-.687,0-.227.228-.342.46-.342.8,0,4.345.342,5.03.46,9.152.342,12.467.342,17.387.342.917,0,3.43,0,3.43-2.976,0-.455-.227-4.117-.342-5.147-.113-.687-.8-3.89-.8-4.577s.915-.8,1.257-.8c.46,0,10.181,1.944,10.181,4.118,0,.57-.227.8-1.487,1.716-1.489,1.254-1.6,2.056-1.6,2.743,0,2.861,0,4.919,3.548,4.919h9.264c3.2,0,4.692,0,5.6-.342,1.144-.572,4.232-5.606,5.374-5.606s9.384,5.606,9.384,7.548c0,1.489-2.518,1.489-6.181,1.489H403.228c-.572,0-2.861,0-2.861,1.487,0,1.831,10.411,9.037,22.3,12.467a52,52,0,0,0,9.954,1.944c.117,0,.687,0,.687.342,0,.115-3.2,1.489-3.775,1.719a29.681,29.681,0,0,0-6.866,4.462,1.739,1.739,0,0,1-1.14.685c-1.147,0-11.555-6.523-19.56-16.13a1.42,1.42,0,0,0-1.029-.685c-.575,0-.919.46-.919,1.144,0,4.345.117,6.636-.57,7.775-.227.46-2.174,1.946-2.174,2.406,0,.687.457.914.8,1.142,3.088,2.174,3.89,3.318,3.89,4.232a7.058,7.058,0,0,0-.232.8c0,2.516,13.727,12.24,25.165,15.67,1.716.57,11.21,2.518,11.21,2.743a30.828,30.828,0,0,1-3.773,1.716,32.236,32.236,0,0,0-6.751,4.46c-.455.345-.8.687-1.257.687s-11.553-5.949-19.675-14.526a93.2,93.2,0,0,1-6.061-7.32,2.987,2.987,0,0,0-2.288-1.144c-.687,0-.915.23-2.629,1.831C383.44,376.6,376.8,381.4,366.513,386.2a13.349,13.349,0,0,1-1.721.687l-.11-.227c.342-.574,4.46-3.777,4.919-4.232,10.634-9.269,22.991-23.223,22.991-27.683,0-.572-.46-3.088-.46-3.658,0-.46.342-6.066.342-7.1a1.162,1.162,0,0,0-1.257-1.027c-.457,0-.574.115-1.831,1.255-13.384,12.472-23.908,17.159-24.478,17.159-.117,0-.345,0-.345-.228s5.379-5.147,5.949-5.721c6.863-7.2,14.071-15.781,14.071-16.927a1.443,1.443,0,0,0-1.489-1.487c-2.743,0-6.406-.117-9.035.115-.572,0-3.89.455-4.232.455-.46,0-.687-.342-1.029-.8Zm17.044,63.6c-1.257,0-1.484-.457-3.316-4.8a31.676,31.676,0,0,0-4.46-7.208c-.232-.227-.345-.345-.345-.455s.113-.232.345-.232c1.6,0,11.093,1.261,11.093,8.008C386.985,396.043,385.271,397.757,383.667,397.757Zm16.7,14.643c0,11.321-6.176,11.663-7.32,11.663-1.374,0-1.6-.227-3.433-2.511a19.264,19.264,0,0,0-7.431-4.919c-.687-.117-.8-.232-.8-.46,0-.342.46-.342.685-.342,1.147,0,9.379-.345,10.294-1.489.46-.687.46-13.152.46-17.042,0-4.345-.228-14.067-.8-18.416-.113-.46-.572-2.628-.572-2.861,0-.8.687-1.029,1.257-1.029.687,0,9.379,1.147,9.379,3.205,0,.8-.342,1.027-1.372,1.941a3.976,3.976,0,0,0-1.372,3.548c0,4.46,0,11.668.917,12.925.57.8,1.029.915,5.147,2.174,14.071,4.235,25.852,8.008,25.852,16.357,0,2.518-1.489,5.034-3.548,5.034-1.257,0-1.714-.457-6.406-5.494-9.607-10.064-19.673-15.211-20.13-15.211a1.377,1.377,0,0,0-1.374,1.144C399.8,402.446,400.367,410.684,400.367,412.4Zm.917-17.619a.245.245,0,0,1-.232-.227c0-.342,6.408-6.174,7.32-7.435a22.975,22.975,0,0,0,2.75-4.577c.455-.912.8-1.14,1.14-1.14,1.489,0,7.895,5.372,7.895,6.634,0,.914-.8,1.029-1.372,1.029a8.3,8.3,0,0,0-3.663.687C413.292,390.436,401.626,394.781,401.284,394.781Z" transform="translate(161.004 229.779)" fill="#fff"/>
    <path id="パス_41249" data-name="パス 41249" d="M476.014,385.927c-2.059,0-2.629,0-2.629,1.029,0,6.064,33.4,24.248,45.867,24.248.342,0,1.029,0,1.029.575,0,.342-1.374.57-1.831.57a25.5,25.5,0,0,0-10.526,4.46c-.455.232-2.059,2.291-2.628,2.291a10.421,10.421,0,0,1-3.663-1.6c-10.751-6.746-14.066-9.492-27.563-23.561-.457-.572-2.289-2.4-2.861-2.4-1.144,0-1.144,2.746-1.144,3.205,0,.8.115,5.262.342,10.634,0,1.262.8,13.956.8,14.071,0,5.032-4.8,5.949-6.064,5.949-3.088,0-3.088-2.174-3.088-3.088,0-1.714.572-9.267.687-10.983.115-4.345.342-9.607.342-13.839,0-.685,0-2.059-1.372-2.059-.8,0-1.372.57-2.174,1.257-10.979,10.751-24.592,17.5-30.766,20.02-2.751,1.14-9.839,3.545-11.785,3.545a.368.368,0,0,1-.345-.342c0-.115,4.692-2.748,5.721-3.32,9.607-5.034,35.8-24.932,35.8-29.165,0-1.489-1.147-1.489-3.088-1.489H436.206c-3.2,0-11.321.115-14.409.342-.46,0-2.063.227-2.518.227-.342,0-.574-.227-.917-.685l-2.286-2.631c-.227-.342-.46-.574-.46-.8s.232-.228.345-.228c.8,0,4.232.345,5.034.345,3.316.227,9.264.455,15.785.455H460a2.718,2.718,0,0,0,2.971-2.858c0-1.027,0-2.743-.112-3.773-.115-.8-.8-4.465-.8-4.919,0-1.029.687-1.262,1.6-1.262s9.954,2.4,9.954,4.007c0,.57-1.029,1.257-2.176,2.174-1.257.914-1.372,2.514-1.372,3.885a2.843,2.843,0,0,0,3.088,2.746h23.333c5.607,0,6.523,0,8.008-2.286,2.976-4.46,3.2-4.919,4.692-4.919.914,0,9.607,6.519,9.607,8.35s-1.944,1.831-6.176,1.831Zm-27.451-41.639c2.629,0,3.431-1.482,3.431-6.634,0-5.944-1.029-6.861-3.775-6.861h-9.836c-10.066,0-13.387.227-14.416.342-.452,0-2.056.227-2.4.227-.455,0-.685-.227-1.029-.687l-2.286-2.628c-.342-.46-.457-.57-.457-.8,0-.11.115-.227.457-.227.8,0,4.235.342,5.032.342,5.6.345,10.3.46,15.67.46h55.936c5.262,0,5.949,0,6.978-1.029,1.029-.917,4.575-6.406,5.832-6.406.8,0,9.152,7.2,9.152,8.807s-2.174,1.6-6.064,1.6H485.051c-3.775,0-3.775,2.861-3.775,4s-.228,6.059,0,7.088c.342,2.4,2.746,2.4,4,2.4h8.809a5.08,5.08,0,0,0,3.775-1.482c2.059-2.059,2.288-2.291,3.318-2.291,1.6,0,8.577,5.489,8.577,7.093,0,.687-.8,1.257-2.629,2.4a2.228,2.228,0,0,0-1.261,2.4c0,2.291.117,12.24.117,14.184,0,4.919-3.658,5.721-5.721,5.721-1.716,0-1.944-.46-2.973-2.286a3.353,3.353,0,0,0-3.318-1.6H439.294a3.783,3.783,0,0,0-3.316,1.372,5.469,5.469,0,0,1-5.262,2.746c-1.372,0-3.2-.345-3.2-2.4,0-.912.342-4.8.342-5.6,0-7.663-.227-16.013-.457-19.328-.112-.687-.914-3.775-.914-4.46a.912.912,0,0,1,1.029-.919c.914,0,1.489.345,6.519,2.978a10.747,10.747,0,0,0,5.949,1.482Zm-9.954,3.093a2.912,2.912,0,0,0-2.973,3.2c0,13.267,0,14.871,3.2,14.871h9.951c2.289,0,2.976-1.831,2.976-3.663,0-1.254,0-11.663-.115-12.008a2.71,2.71,0,0,0-2.861-2.4ZM462.4,330.794c-2.4,0-3.205,1.6-3.205,3.43,0,1.6,0,7.78.232,8.35a2.845,2.845,0,0,0,2.973,1.714h8.122c2.286,0,3.2-1.254,3.2-3.2,0-9.379,0-10.3-3.2-10.3Zm.115,16.587c-3.32,0-3.32,2.286-3.32,5.147,0,1.714,0,10.291.232,10.978a2.785,2.785,0,0,0,3.088,1.946h7.89c3.32,0,3.32-2.516,3.32-3.773v-11.9c-.46-2.4-2.406-2.4-3.32-2.4Zm21.847,0c-2.973,0-3.2,2.171-3.2,3.088,0,14.641,0,14.983,3.43,14.983H494.66c3.2,0,3.316-.457,3.316-14.641,0-1.372,0-3.43-3.2-3.43Z" transform="translate(272.113 229.713)" fill="#fff"/>
    <path id="パス_41250" data-name="パス 41250" d="M519.171,387c-4.462.46-10.066,1.144-14.3,1.946-.345,0-2.059.455-2.4.455-.457,0-.685-.227-1.027-.57l-2.518-2.4c-.46-.46-.57-.57-.57-.687,0-.227,1.942-.342,3.313-.342,4.919-.228,12.812-1.029,17.729-1.489l18.758-1.942c.8-.117,2.291-.232,2.633-1.831.227-1.029.227-13.612.227-15.328,0-1.372,0-3.89-3.43-3.548l-8.577.919c-2.976.342-11.326,1.257-15.1,2.059-.342,0-1.487.342-1.714.342-.345,0-.687-.342-1.029-.687l-2.4-2.288c-.574-.57-.574-.57-.574-.8,0-.345.342-.345,1.144-.345,2.861,0,17.5-1.144,18.3-1.144a13.4,13.4,0,0,0,1.827-.115l8.809-1.029c1.145-.117,2.4-.227,2.744-2.4.117-1.257.232-13.494.232-15.785,0-1.142,0-2.4-1.831-2.4-.917,0-28.253,3.2-33.632,3.2-.57,0-1.372-.227-1.372-.687,0-.342,3.2-1.029,3.775-1.144,3.777-.915,20.477-3.775,23.908-4.577,12.81-2.743,33.969-7.548,42.209-11.663.57-.232,3.088-1.949,3.773-1.949,1.374,0,9.607,7.093,9.607,9.037,0,.917-.11.8-5.147,1.489-2.174.23-31.224,4.917-31.568,5.034-1.487.227-1.487,1.372-1.487,2.861-.117,2.856-.117,9.834-.117,12.35,0,2.976,0,5.489,3.663,5.034l12.352-1.372c5.721-.687,6.406-.687,8.005-3.778,2.176-4.46,2.4-4.915,3.548-4.915,1.489,0,10.523,6.286,10.523,8.005,0,1.374-.57,1.484-5.377,1.944L552.8,359.553c-2.856.342-3.43.8-3.43,4.117,0,4.917,0,14.071.232,14.756.342,1.6,1.257,2.174,3.431,1.944l26.306-2.856c5.034-.574,5.721-.574,7.093-2.633,2.861-4.235,3.088-4.687,4.232-4.687.572,0,11.323,4.917,11.323,6.4s-2.059,1.716-5.949,2.174l-43.006,4.577c-2.4.227-3.663.46-3.663,3.89,0,1.942,0,19.788.117,20.817.8,6.406,9.152,6.406,15.785,6.406,5.606,0,21.387-.232,24.475-4.464,2.059-2.629,3.435-9.379,3.548-9.949.115-.46.457-2.059.917-2.059.228,0,1.716,6.751,2.286,7.89a25.54,25.54,0,0,0,2.628,3.775,3.419,3.419,0,0,1,.8,2.059c0,4-5.6,6.866-9.037,8.122-3.313,1.144-6.064,2.174-32.6,2.174-16.355,0-17.5-8.007-17.5-20.13,0-2.4.112-14.3,0-14.983-.342-2.059-1.714-1.949-3.088-1.831Z" transform="translate(383.38 230.236)" fill="#fff"/>
    <path id="パス_41251" data-name="パス 41251" d="M676.559,432.543c-27.889.5-56.057-1.473-79.316-5.548a5.5,5.5,0,0,1-4.671-5.222,5.429,5.429,0,0,1,4.11-5.56l3.438-.933c18.114-4.9,60.545-16.379,71.991-27.652,7.381-7.271,10.434-15.023,8.823-22.416-1.892-8.669-10.279-16.477-22.435-20.89C621.27,330.8,578.32,332.67,539.275,331.106q-50.648-2.029-101.34-2.633c-27.7-.331-59.877,2.038-83.672-15.157a46.5,46.5,0,0,1-14.608-61.88c14.4-24.827,54.519-33.491,71.1-36.063,22.438-3.482,33.632-4.467,58.853-5.745,45.145-2.291,65.394.863,103.763-15.48a5.753,5.753,0,0,1,7.22,2.35,5.259,5.259,0,0,1,.028,5.337c-22.7,40.031-98.674,31.571-143.137,46.071-10.432,3.4-28.089,13.011-25.474,26.738.755,3.977,3.634,7.295,7.032,9.5,12.6,8.158,28.689,7.724,42.99,8.54l.954.054c41.817,2.4,84.425-.778,126.395-.537,52.908.3,107.482-1.287,159.876,6.776,30.844,4.746,80.127,16.006,80.831,55.469.7,39.144-51.349,62.213-71.461,67.8C736.365,428.419,707.986,431.983,676.559,432.543Z" transform="translate(163.974 59.319)" fill="#fff"/>
  </g>
</svg>
