<svg xmlns="http://www.w3.org/2000/svg" xmlns:xlink="http://www.w3.org/1999/xlink" viewBox="0 0 212.26 209.39"><defs><style>.cls-1{fill:#231815;}.cls-2{fill:url(#名称未設定グラデーション_21);}</style><linearGradient id="名称未設定グラデーション_21" x1="87.97" y1="-4.42" x2="120.92" y2="119.62" gradientTransform="translate(-1.15 -11.21) rotate(-1.02)" gradientUnits="userSpaceOnUse"><stop offset="0.01" stop-color="#2db493"/><stop offset="1" stop-color="#0c6e99"/></linearGradient></defs><g id="レイヤー_2" data-name="レイヤー 2"><g id="レイヤー_1-2" data-name="レイヤー 1"><path class="cls-1" d="M16.86,191.59c-.05-1.32-.11-2.67-.17-4l.78.11a7.05,7.05,0,0,0,1.5,0l.78-.11c-.06,1.37-.12,2.72-.17,4s-.08,2.67-.08,4V201c0,1.37,0,2.72.08,4.06s.11,2.64.17,3.93a16.76,16.76,0,0,0-3.06,0c.06-1.29.12-2.6.17-3.93s.08-2.69.08-4.06v-2.81l-3.26-.05H7.16l-3.27.05V201c0,1.37,0,2.72.08,4.06s.11,2.64.17,3.93a14.71,14.71,0,0,0-1.53-.07,14.51,14.51,0,0,0-1.52.07c.06-1.29.11-2.6.17-3.93s.07-2.69.07-4.06v-5.37c0-1.37,0-2.72-.07-4s-.11-2.67-.17-4l.78.11a6.12,6.12,0,0,0,.74,0,6.28,6.28,0,0,0,.75,0l.78-.11c-.06,1.37-.12,2.72-.17,4s-.08,2.67-.08,4v1.09l3.27.07c1.05,0,2.13,0,3.26,0s2.21,0,3.26,0l3.26-.07v-1.09C16.94,194.26,16.91,192.91,16.86,191.59Z"/><path class="cls-1" d="M28.75,191.59c-.06-1.32-.11-2.67-.18-4l.78.11a7.05,7.05,0,0,0,1.5,0l.78-.11c-.06,1.37-.12,2.72-.17,4s-.08,2.67-.08,4V201c0,1.37,0,2.72.08,4.06s.11,2.64.17,3.93a16.76,16.76,0,0,0-3.06,0c.07-1.29.12-2.6.18-3.93s.07-2.69.07-4.06v-5.37C28.82,194.26,28.8,192.91,28.75,191.59Z"/><path class="cls-1" d="M41,204.93,43.72,201c.92-1.3,1.81-2.57,2.68-3.83s1.68-2.43,2.41-3.5l1.9-2.81,1.22-1.82L50.8,189l-1.06,0-2.49,0c-.92,0-1.84.06-2.76.11l-2.66.16c-.84.05-1.55.11-2.14.17a3.48,3.48,0,0,0,.16-1,3.42,3.42,0,0,0-.16-1c1,.08,2.64.13,4.84.14h8.18c.56,0,1.12,0,1.68,0l1.66-.11v.56a23.91,23.91,0,0,0-1.75,2.15c-.75,1-1.58,2.13-2.48,3.4s-1.85,2.61-2.83,4-1.9,2.77-2.77,4.06-1.65,2.45-2.33,3.48-1.17,1.79-1.48,2.29c.5,0,1,.07,1.36.08l1.23,0c.79,0,1.71,0,2.76-.05s2.1-.08,3.14-.14l3-.19c.92-.06,1.66-.13,2.2-.19,0,.19-.08.37-.11.53a2.92,2.92,0,0,0,0,.5,3,3,0,0,0,.16.91L54,208.94l-1.82,0H42.92l-2.7,0c-.81,0-1.41,0-1.81.05v-.44C39.23,207.43,40.08,206.22,41,204.93Z"/><path class="cls-1" d="M80.26,209a4.89,4.89,0,0,0-.83-.07H77.78A4.89,4.89,0,0,0,77,209c-.14-.48-.68-1.06-.59-1.73s-.53-1.39-.83-2.13l-.92-2.24c-.31-.76-.6-1.49-.87-2.17l-2-.05-2.06,0-1.9,0-1.91.05c-.66,1.62-1.27,3.17-1.81,4.63S63.09,208,62.81,209a9.48,9.48,0,0,0-2.3,0q2.52-5.46,4.93-10.86t4.83-11h.6l1.62,3.92q.87,2.1,1.78,4.26c.6,1.43,1.2,2.86,1.81,4.27s1.17,2.73,1.7,3.95,1,2.31,1.43,3.26S80,208.49,80.26,209Zm-13.82-9.71,1.68,0,1.69,0h1.74l1.75-.05-3.46-7.93Z"/><path class="cls-1" d="M86.88,209c.06-1.29.12-2.6.17-3.93s.08-2.69.08-4.06v-5.37c0-1.37,0-2.72-.08-4s-.11-2.67-.17-4l.78.11a7.05,7.05,0,0,0,1.5,0l.78-.11c-.06,1.37-.12,2.72-.17,4s-.08,2.67-.08,4v1.72c0,.16.06.25.19.25s.23-.1.44-.28c.72-.63,1.49-1.68,2.29-2.13s1.61-1.61,2.42-2.46,1.61-1.72,2.4-2.61,1.55-1.74,2.28-2.57l.65.11a4.44,4.44,0,0,0,.63,0,6.28,6.28,0,0,0,.75,0l.75-.11c-.73.62-1.55,1.36-2.47,2.21s-1.84,1.73-2.76,2.62-1.81,1.78-2.65,2.64-1.55,1.62-2.11,2.26q2.53,2.85,5.1,5.79t5.23,5.92a5.86,5.86,0,0,0-.94-.07H100.1a5.07,5.07,0,0,0-.86.07c-.75-.86-1.58-1.83-2.48-2.94l-2.65-3.19-2.68-2.78c-.7-.83-1.22-1.4-1.55-1.73-.17-.17-.29-.25-.37-.25s-.16.06-.16.18V201c0,1.37,0,2.72.08,4.06s.11,2.64.17,3.93a16.76,16.76,0,0,0-3.06,0Z"/><path class="cls-1" d="M125.54,197.69q0-4.42,0-6.84a32.78,32.78,0,0,0-.15-3.3l.65.11a4.4,4.4,0,0,0,.62,0,3.44,3.44,0,0,0,.94-.15c-.06.72-.12,1.59-.19,2.6s-.11,2.09-.15,3.25-.09,2.68-.13,3.56-.07,2.4-.09,3.54a11.14,11.14,0,0,1-.64,3.74,7.84,7.84,0,0,1-1.73,2.81,7.17,7.17,0,0,1-2.76,1.75,11,11,0,0,1-3.77.59c-3.12,0-5.38-.7-6.8-2.12s-2.12-3.65-2.12-6.71c0-1,0-1.85.08-2.61s.07-1.53.07-2.32q0-2.62-.06-4.65c0-1.35-.08-2.5-.12-3.43l.81.11a7.83,7.83,0,0,0,.81,0,4.92,4.92,0,0,0,.67,0l.67-.11c0,.45-.08,1-.12,1.79s-.09,1.58-.13,2.51-.07,2-.09,3,0,2.21,0,3.37c0,.71,0,1.44,0,2.2a14.65,14.65,0,0,0,.22,2.22,9.21,9.21,0,0,0,.61,2.06,5.1,5.1,0,0,0,1.2,1.71,5.48,5.48,0,0,0,2,1.16,8.88,8.88,0,0,0,2.94.42,7.4,7.4,0,0,0,2.88-.5,5.49,5.49,0,0,0,1.92-1.31,5.91,5.91,0,0,0,1.17-1.87,9.86,9.86,0,0,0,.61-2.22,16.41,16.41,0,0,0,.22-2.31C125.53,199,125.54,198.33,125.54,197.69Z"/><path class="cls-1" d="M136,195.63c0-1.37,0-2.72-.08-4s-.1-2.67-.17-4l1.78.11c.58,0,1.18,0,1.78,0a17.41,17.41,0,0,0,1.78-.08c.58-.05,1.18-.07,1.78-.07a11.91,11.91,0,0,1,2.5.25,6,6,0,0,1,2.07.82,4.29,4.29,0,0,1,1.41,1.52,4.82,4.82,0,0,1,.51,2.68,4.73,4.73,0,0,1-.67,2.57,6.23,6.23,0,0,1-1.64,1.78,8.05,8.05,0,0,1-2.07,1.09,10.21,10.21,0,0,1-2,.52c.25.31.6.75,1,1.31l1.47,1.86,1.69,2.12,1.68,2.12q.81,1,1.53,1.86c.48.56.86,1,1.15,1.28a5.82,5.82,0,0,0-.93-.07h-1.84a5.33,5.33,0,0,0-.91.07c-.31-.44-.78-1.1-1.42-2s-1.68-1.81-2.11-2.81-1.55-2-2.35-3-1.54-1.82-2.2-2.51h-1.19V201c0,1.37,0,2.72.08,4.06s.11,2.64.17,3.93a16.76,16.76,0,0,0-3.06,0c.07-1.29.12-2.6.17-3.93s.08-2.69.08-4.06Zm2.56,1.78a6.65,6.65,0,0,0,.95.12c.35,0,.73,0,1.14,0a10.31,10.31,0,0,0,2-.22,6,6,0,0,0,1.92-.77,4.53,4.53,0,0,0,1.45-1.47,4.31,4.31,0,0,0,.57-2.32,4,4,0,0,0-.45-2,3.58,3.58,0,0,0-1.17-1.27,4.64,4.64,0,0,0-1.56-.64,8.56,8.56,0,0,0-1.65-.17c-.73,0-1.33,0-1.81.05s-.89.07-1.22.11c0,1.14-.08,2.28-.13,3.4s-.06,2.25-.06,3.37Z"/><path class="cls-1" d="M158.68,191.59c-.05-1.32-.11-2.67-.17-4l.78.11a7.05,7.05,0,0,0,1.5,0l.78-.11c-.06,1.37-.12,2.72-.17,4s-.08,2.67-.08,4V201c0,1.37,0,2.72.08,4.06s.11,2.64.17,3.93a16.76,16.76,0,0,0-3.06,0c.06-1.29.12-2.6.17-3.93s.08-2.69.08-4.06v-5.37C158.42,194.26,158.39,192.91,158.68,191.59Z"/><path class="cls-1" d="M186.16,190.23a8.76,8.76,0,0,0-1.56-1,10,10,0,0,0-1.91-.69,8.86,8.86,0,0,0-2.23-.26,10.54,10.54,0,0,0-3.6.59,7.64,7.64,0,0,0-2.9,1.82,8.58,8.58,0,0,0-1.94,3.13,12.75,12.75,0,0,0-.7,4.47,12.92,12.92,0,0,0,.62,4.12,8.35,8.35,0,0,0,1.83,3.11,8.19,8.19,0,0,0,2.93,2,10.53,10.53,0,0,0,3.92.69,13.1,13.1,0,0,0,1.37-.07c.48,0,.94-.1,1.39-.18a12.69,12.69,0,0,0,1.25-.31,5.3,5.3,0,0,0,1-.44c0-.63,0-1.25,0-1.88s0-1.25,0-1.9,0-1.45-.05-2.18-.07-1.43-.11-2.09a7.94,7.94,0,0,0,1.5.15c.23,0,.45,0,.68,0a3.5,3.5,0,0,0,.66-.12c0,.47-.07,1.23-.09,2.26s0,2.39,0,4.07c0,.42,0,.84,0,1.27s0,.84,0,1.26a15.66,15.66,0,0,1-1.64.51,18.35,18.35,0,0,1-2.09.44c-.74.11-1.48.22-2.22.31a15,15,0,0,1-2,.14,17.31,17.31,0,0,1-5-.67,9.87,9.87,0,0,1-3.79-2.07,9.29,9.29,0,0,1-2.41-3.5,12.91,12.91,0,0,1-.84-4.84,12.11,12.11,0,0,1,.87-4.72,9.87,9.87,0,0,1,2.47-3.52,10.83,10.83,0,0,1,3.85-2.18,15.87,15.87,0,0,1,5-.75,21.51,21.51,0,0,1,2.83.17,17,17,0,0,1,2.18.45,14.35,14.35,0,0,1,1.67.6c.48.21.91.4,1.28.59a5,5,0,0,0-.45,1.12,7.74,7.74,0,0,0-.27,1.28h-.37A8.45,8.45,0,0,0,186.16,190.23Z"/><path class="cls-1" d="M196,191.54c0-1.33-.11-2.66-.17-4l2.79.11c.93,0,1.86,0,2.79,0s1.87,0,2.78,0l2.78-.11a4.88,4.88,0,0,0-.09.93,5,5,0,0,0,.09.94c-.67,0-1.28-.08-1.83-.13l-1.74-.12-2-.11c-.72,0-1.6-.05-2.62-.05,0,.67,0,1.3-.08,1.91s0,1.29,0,2.06,0,1.6,0,2.37,0,1.35,0,1.75c.91,0,1.74,0,2.46,0l2-.07,1.67-.1,1.45-.1a5,5,0,0,0-.09,1,5,5,0,0,0,.09.94c-.54-.06-1.17-.12-1.89-.16s-1.43-.06-2.15-.08l-2,0h-1.51c0,.19,0,.39,0,.61s0,.49,0,.82v3.09c0,1.19,0,2.17,0,2.94s0,1.35.05,1.75h2.18c.79,0,1.57,0,2.33-.05s1.48-.08,2.15-.13a14.53,14.53,0,0,0,1.77-.23,1.78,1.78,0,0,0-.08.48c0,.18,0,.68,0,.49a2.63,2.63,0,0,0,.1.81c-.94-.05-1.87-.07-2.8-.07h-5.66c-.94,0-1.89,0-2.84.07.06-1.33.12-2.66.17-4s.08-2.67.08-4V195.6C196.09,194.23,196.06,192.87,196,191.54Z"/><path class="cls-1" d="M8.15,129.68a2,2,0,0,0,1.8-.83c.39-.59.59-.78.88-.78s3.22,1.61,3.22,2.58c0,.25-.39.59-.93,1.13s-.53,1-.53,5.07c0,4.64.19,25,.19,29.12,0,3.52-2.59,4.69-3.9,4.69-.54,0-.68-.3-.93-.78a9.16,9.16,0,0,0-2.83-2.69c-.1,0-.24-.05-.24-.19s.09-.1.19-.1c.54,0,3,.1,3.47,0,1.12-.14,1.12-1.12,1.12-2.88s.1-8.83.1-10.29a1.24,1.24,0,0,0-1.42-1.37H6.05c-1.32,0-1.32.15-1.66,3.42-.29,2.93-1.07,8.92-3.9,13.46-.68.49-.39.54-.39.54a.11.11,0,0,1-.1-.1,2.76,2.76,0,0,1,.1-.63c1.26-5.91,1.8-10.68,1.8-22.69A136.73,136.73,0,0,0,1.36,131c0-.44-.39-2.24-.39-2.64a.42.42,0,0,1,.44-.48c.4,0,.64.14,2.78,1.26a4.52,4.52,0,0,0,2.35.59Zm-1.91,12.2a1.18,1.18,0,0,0-1.17.53c-.19.68-.68,6.44-.68,7.08,0,1,.29,1.61,1.37,1.61H8.44c1.32,0,1.32-.93,1.32-1.86,0-.63.05-6.1-.1-6.58a1.15,1.15,0,0,0-1.27-.78Zm0-10.88c-.44,0-1.46,0-1.46,1.36,0,1.08.1,5.71.1,6.64,0,.68,0,1.61,1.46,1.61H8.2a1.26,1.26,0,0,0,1.46-1.42c0-1,0-6.78-.05-7.17-.15-1-1-1-1.46-1Zm18.2,30.19c.05,0,.68-.09.39-.09a.2.2,0,0,1,.19.14c0,.44-7.46,5.47-7.9,5.81-.2.14-.93,1.07-1.17,1.07-.63,0-2.59-4-2.59-4.24a.18.18,0,0,1,.2-.2c.05,0,.1,0,.44.2a2.63,2.63,0,0,0,.83.14,5.27,5.27,0,0,0,.83-.09A74.36,74.36,0,0,0,24.49,161.19ZM14.68,132.61c-.19-.2-.24-.25-.24-.3s.09-.14.19-.14c.68,0,1.86.14,2.15.19,3.9.15,5.32.15,7.41.15.39,0,1.47,0,1.47-1.27,0-.19-.1-1.76-.15-2.19s-.68-1.66-.68-2,.39-.68.54-.68,4.68.83,4.68,1.76c0,.24-.1.68-.64.73s-.68.88-.68,1.17c0,1.22,0,2.1,1.51,2.1h4a8.23,8.23,0,0,0,2.39-.15c.49-.24,1.81-2.39,2.3-2.39s4,2.39,4,3.22c0,.64-1.08.64-2.64.64H30c-.24,0-1.22,0-1.22.63,0,.78,4.44,3.85,9.51,5.32a22.8,22.8,0,0,0,4.25.83s.29,0,.29.14a17.56,17.56,0,0,1-1.61.74,12.54,12.54,0,0,0-2.93,1.9.75.75,0,0,1-.48.29c-.49,0-4.93-2.78-8.68-6.88a.63.63,0,0,0-.44-.29c-.25,0-.39.2-.39.49,0,1.85,0,2.83-.25,3.31-.1.2-.93.83-.93,1s.2.39.35.49c1.31.92,1.66,1.41,1.66,1.8a2.94,2.94,0,0,0-.1.68c0,1.08,5.85,5.22,10.73,6.69.73.24,4.78,1.07,4.78,1.17a13.84,13.84,0,0,1-1.61.73,13.8,13.8,0,0,0-2.88,1.9c-.19.15-.68.29-.53.29a32,32,0,0,1-8.4-6.19c-.92-1-1.75-2.05-2.58-3.12a1.26,1.26,0,0,0-1-.49c-.29,0-.39.1-1.12.78-5.22,5-8,7-12.44,9.07a4.93,4.93,0,0,1-.73.3l-.05-.1c.15-.25,1.9-1.61,2.1-1.81,4.54-3.95,9.81-9.9,9.81-11.8,0-.25-.2-1.32-.2-1.56s.15-2.59.15-3a.51.51,0,0,0-.54-.44c-.2,0-.24,0-.78.54-5.71,5.32-10.2,7.32-10.44,7.32,0,0-.15,0-.15-.1s2.3-2.2,2.54-2.44c2.93-3.07,6-6.73,6-7.22a.61.61,0,0,0-.63-.63c-1.17,0-2.74-.05-3.86,0-.24,0-1.66.19-1.8.19s-.3-.15-.44-.68Zm7.27,27.12c-.54,0-.63-.2-1.41-2a13.6,13.6,0,0,0-1.91-3.07c-.1-.1-.14-.15-.14-.2s0-.1.14-.1c.69,0,4.73.54,4.73,3.42C23,159,22.29,159.73,21.61,159.73ZM28.73,166c0,4.83-2.63,5-3.12,5s-.68-.1-1.46-1.07a8.27,8.27,0,0,0-3.17-2.1c-.3-.05-.35-.1-.35-.2s.2-.14.3-.14c.49,0,4-.15,4.39-.64.19-.29.19-5.61.19-7.27,0-1.85-.09-6-.68-7.85-.05-.2-.24-1.12-.24-1.22,0-.68.29-.44.53-.44s4,.49,4,1.37c0,.68-.14.44-.58.83a1.67,1.67,0,0,0-.59,1.51c0,1.9,0,5,.39,5.51.25.68.44.39,2.2.93,6,1.8,11,3.41,11,7,0,1.08-.63,2.15-1.51,2.15-.53,0-.73-.19-2.73-2.68a30.64,30.64,0,0,0-8.59-6.49.58.58,0,0,0-.58.49C28.49,161.73,28.73,165.24,28.73,166Zm.39-7.51a.11.11,0,0,1-.1-.1c0-.14,2.74-2.63,3.13-3.17a9.79,9.79,0,0,0,1.17-1.95c.19-.39.68-.49.48-.49.64,0,3.37,2.3,3.37,2.83s-.68.44-.58.44a3.54,3.54,0,0,0-1.57.3C68.24,156.61,29.27,158.46,29.12,158.46Z"/><path class="cls-1" d="M108.38,154.66c-.88,0-1.12,0-1.12.44,0,2.58,14.24,10.68,19.56,10.68.14,0,.44,0,.44.24s-.59.24-.78.24a10.89,10.89,0,0,0-4.49,1.91c-.2.1-.88,1-1.12,1a4.51,4.51,0,0,1-1.57-.68c-4.58-2.88-6-4.05-11.75-10.05-.2-.24-1-1-1.22-1-.49,0-.49,1.17-.49,1.36,0,.68,0,2.25.15,4.54,0,.54.68,6,.68,6a2.56,2.56,0,0,1-2.59,2.54c-1.31,0-1.31-.93-1.31-1.32,0-.73.24-3.95.29-4.68,0-1.86.15-4.1.15-5.91,0-.29,0-.87-.59-.87-.68,0-.59.24-.93.53a43.48,43.48,0,0,1-13.12,8.54,24.63,24.63,0,0,1-5,1.51.16.16,0,0,1-.15-.14c0-.05,2-1.18,2.44-1.42,4.1-2.15,15.27-10.63,15.27-12.44,0-.63-.49-.63-1.32-.63h-8c-1.37,0-4.83.05-6.14.14-.2,0-.88.1-1.08.1s-.24-.1-.39-.29l-1-1.12c-.1-.15-.2-.25-.2-.35s.1-.09.15-.09c.68,0,1.8.14,2.14.14,1.42.1,4,.2,6.74.2h9.9a1.16,1.16,0,0,0,1.27-1.22c0-.44,0-1.17,0-1.61s-.68-1.9-.68-2.1c0-.44.29-.54.68-.54s4.24,1,4.24,1.71c0,.25-.44.54-.92.93a1.9,1.9,0,0,0-.59,1.66,1.21,1.21,0,0,0,1.32,1.17h10c2.39,0,2.78,0,3.41-1,1.27-1.9,1.37-2.1,2-2.1.39,0,4.1,2.78,4.1,3.57s-.83.78-2.63.78ZM96.67,136.9c1.12,0,1.46-.63,1.46-2.83,0-2.54-.44-2.93-1.61-2.93H92.33c-4.29,0-5.71.1-6.15.15-.19,0-.88.1-1,.1s-.3-.1-.44-.3l-1-1.12c-.14-.19-.19-.24-.19-.68s0-.1.19-.1c.68,0,1.81.15,2.15.15,2.39.15,4.39.2,6.68.2h23.86c2.24,0,2.53,0,3-.44s1.95-2.74,2.49-2.74c.68,0,3.9,3.08,3.9,3.76s-.92.68-2.58.68h-11a1.46,1.46,0,0,0-1.61,1.71c0,.49-.1,2.59,0,3,.15,1,1.17,1,1.71,1h3.75a2.14,2.14,0,0,0,1.61-.63c.88-.88,1-1,1.42-1,.68,0,3.66,2.68,3.66,3,0,.3-.68.54-1.12,1a.94.94,0,0,0-.54,1c0,1,0,5.22,0,6a2.24,2.24,0,0,1-2.44,2.44c-.73,0-.83-.19-1.27-1a1.42,1.42,0,0,0-1.41-.69H92.72a1.62,1.62,0,0,0-1.42.59A2.32,2.32,0,0,1,89.06,149c-.59,0-1.37-.15-1.37-1,0-.39.15-2,.15-2.39,0-3.26-.1-6.83-.2-8.24,0-.29-.39-1.61-.39-1.9a.39.39,0,0,1,.44-.39c.39,0,.64.14,2.78,1.27a4.6,4.6,0,0,0,2.54.63Zm-4.24,1.32a1.24,1.24,0,0,0-1.27,1.36c0,5.66,0,6.68,1.36,6.68h4.25c1,0,1.27-.78,1.27-1.56,0-.53,0-5-.05-5.12a1.16,1.16,0,0,0-1.22-1Zm10.14-7.08c-1,0-1.36.69-1.36,1.47s0,3.31.09,3.56a1.22,1.22,0,0,0,1.27.73H106a1.21,1.21,0,0,0,1.36-1.37c0-4,0-4.39-1.36-4.39Zm.05,7.08c-1.41,0-1.41,1-1.41,2.19,0,.73,0,4.39.09,4.68a1.2,1.2,0,0,0,1.32.83H106c1.41,0,1.41-1.07,1.41-1.6v-5.08a1.22,1.22,0,0,0-1.41-1Zm9.32,0a1.21,1.21,0,0,0-1.37,1.31c0,6.25,0,6.39,1.47,6.39h4.29c1.36,0,1.41-.19,1.41-6.24,0-.58,0-1.46-1.36-1.46Z"/><path class="cls-1" d="M174.24,155.68c-1.91.19-4.3.49-6.1.83-.15,0-.88.19-1,.19a.58.58,0,0,1-.44-.24l-1.07-1c-.2-.2-.24-.25-.24-.3a4.18,4.18,0,0,1,1.41-.14c2.1-.1,5.46-.44,7.56-.64l8-.83c.68-.05,1-.1,1.13-.78.09-.44.09-5.8.09-6.53s0-1.66-1.46-1.52l-3.66.39c-1.27.15-4.83.54-6.44.88-.15,0-.63.15-.73.15s-.29-.15-.44-.29l-1-1c-.25-.24-.25-.24-.25-.68s.15-.15.49-.15c1.22,0,7.46-.49,7.81-.49a6.81,6.81,0,0,0,.77,0l3.76-.44c.49-.05,1-.1,1.17-1,0-.53.1-5.75.1-6.73,0-.49,0-1-.78-1-.39,0-12.05,1.36-14.68,1.36-.25,0-.59-.1-.59-.29s1.37-.44,1.61-.49c1.61-.39,8.73-1.61,10.2-1.95,5.46-1.17,14.48-3.22,18-5a10.65,10.65,0,0,1,1.61-.83c.58,0,4.09,3,4.09,3.86,0,.39,0,.68-2.19.63-.93.1-13.32,2.1-13.46,2.15-.64.1-.64.58-.64,1.22,0,1.22,0,4.19,0,5.27,0,1.27,0,2.68,1.56,2.14l5.27-.58c2.44-.29,2.73-.29,3.42-1.61.92-1.9,1-2.1,1.51-2.1s4.49,2.68,4.49,3.42c0,.58-.25.63-2.3.82l-12.48,1.32c-1.22.15-1.47.68-1.47,1.76,0,2.09,0,6,.1,6.29.15.68.54.93,1.46.83l11.22-1.22c2.15-.24,2.44-.24,3-1.12,1.22-1.81,1.32-2,1.8-2,.25,0,4.83,2.1,4.83,2.73s-.88.73-2.53.93l-18.35,1.95c-1,.1-1.56.19-1.56,1.66,0,.83,0,8.44,0,8.88.68,2.73,3.91,2.73,6.73,2.73,2.4,0,9.13-.1,10.44-1.91a13.58,13.58,0,0,0,1.52-4.24c0-.2.19-.88.39-.88s.73,2.88,1,3.37a11.09,11.09,0,0,0,1.12,1.61,1.42,1.42,0,0,1,.68.88c0,1.7-2.39,2.92-3.85,3.46s-2.59.93-13.9.93c-7,0-7.46-3.42-7.46-8.59,0-1,0-6.1,0-6.39-.15-.88-.74-.83-1.32-.78Z"/><path class="cls-2" d="M146.79,101.87A184.08,184.08,0,0,1,113,99.5a2.35,2.35,0,0,1-.24-4.6l1.47-.39c7.72-2.09,25.82-7,30.7-11.8,3.15-3.1,4.45-6.4,3.76-9.56-.8-3.69-4.38-7-9.57-8.91-15.87-5.76-68.19-5-50.84-5.63Q66.64,57.74,45,57.49c-11.81-.15-25.54.86-35.68-6.47A19.83,19.83,0,0,1,3.11,24.63C9.25,14,26.36,10.35,33.43,9.25A203.59,203.59,0,0,1,58.53,6.8c19.25-1,27.89.37,44.25-6.6a2.45,2.45,0,0,1,3.08,1,2.24,2.24,0,0,1,0,2.28c-9.68,17.07-42.08,13.46-61,19.65-4.45,1.45-12,5.54-10.87,11.4a6.5,6.5,0,0,0,3,4c5.37,3.48,12.24,3.29,18.33,3.64l.41,0c17.84,1,36-.33,53.91-.23,22.56.13,45.83-.54,68.18,2.89,13.15,2,68.17,6.83,68.47,23.66s-21.9,26.53-30.48,28.91C172.29,100.11,160.19,101.63,146.79,101.87Z"/></g></g></svg>