<svg xmlns="http://www.w3.org/2000/svg" xmlns:xlink="http://www.w3.org/1999/xlink" width="162" height="52" viewBox="0 0 162 52">
  <defs>
    <linearGradient id="linear-gradient" x1="0.808" y1="0.5" x2="-1.573" y2="0.5" gradientUnits="objectBoundingBox">
      <stop offset="0" stop-color="gold"/>
      <stop offset="0.075" stop-color="#fece00"/>
      <stop offset="0.48" stop-color="#fca704"/>
      <stop offset="0.803" stop-color="#fa8e07"/>
      <stop offset="1" stop-color="#fa8608"/>
    </linearGradient>
    <linearGradient id="linear-gradient-2" x1="0.862" y1="0.178" x2="-0.501" y2="1.948" gradientUnits="objectBoundingBox">
      <stop offset="0" stop-color="#e82b36"/>
      <stop offset="1" stop-color="#b4005a"/>
    </linearGradient>
    <linearGradient id="linear-gradient-3" x1="-0.508" y1="-0.956" x2="0.606" y2="0.489" gradientUnits="objectBoundingBox">
      <stop offset="0" stop-color="#2f8e5b"/>
      <stop offset="0.39" stop-color="#4ea157"/>
      <stop offset="0.768" stop-color="#67b054"/>
      <stop offset="1" stop-color="#70b653"/>
    </linearGradient>
  </defs>
  <g id="グループ_2488" data-name="グループ 2488" transform="translate(-599 -510)">
    <g id="長方形_2762" data-name="長方形 2762" transform="translate(599 510)" stroke="#c7c7c7" stroke-width="1">
      <rect width="162" height="52" rx="6" stroke="none"/>
      <rect x="0.5" y="0.5" width="161" height="51" rx="5.5" fill="none"/>
    </g>
    <g id="グループ_2449" data-name="グループ 2449" transform="translate(619.004 521.873)">
      <path id="パス_41262" data-name="パス 41262" d="M76.126,22.878a4.582,4.582,0,1,0,4.6,4.582A4.517,4.517,0,0,0,76.126,22.878Zm0,7.359a2.784,2.784,0,1,1,2.586-2.777A2.652,2.652,0,0,1,76.126,30.238ZM66.093,22.878a4.582,4.582,0,1,0,4.6,4.582A4.516,4.516,0,0,0,66.093,22.878Zm0,7.359A2.784,2.784,0,1,1,68.68,27.46,2.651,2.651,0,0,1,66.093,30.238ZM54.158,24.285v1.943h4.651a4.046,4.046,0,0,1-1.059,2.447A4.761,4.761,0,0,1,54.158,30.1a5.172,5.172,0,0,1,0-10.343,4.952,4.952,0,0,1,3.506,1.389l1.371-1.372a6.78,6.78,0,0,0-4.877-1.961,7.117,7.117,0,1,0,0,14.233,6.5,6.5,0,0,0,4.963-2A6.421,6.421,0,0,0,60.805,25.5a6.405,6.405,0,0,0-.1-1.215Zm48.811,1.509a4.26,4.26,0,0,0-3.922-2.916,4.354,4.354,0,0,0-4.322,4.582,4.483,4.483,0,0,0,4.547,4.582,4.555,4.555,0,0,0,3.818-2.031l-1.561-1.041a2.619,2.619,0,0,1-2.257,1.267,2.329,2.329,0,0,1-2.221-1.389l6.127-2.535ZM96.72,27.322a2.513,2.513,0,0,1,2.4-2.673,1.773,1.773,0,0,1,1.7.972Zm-4.981,4.442h2.013V18.3H91.739Zm-3.3-7.862h-.07a3.173,3.173,0,0,0-2.413-1.024,4.586,4.586,0,0,0,0,9.164A3.121,3.121,0,0,0,88.372,31h.07v.66c0,1.753-.938,2.69-2.447,2.69a2.535,2.535,0,0,1-2.309-1.631l-1.753.729a4.367,4.367,0,0,0,4.062,2.707c2.361,0,4.356-1.387,4.356-4.772V23.156H88.442Zm-2.309,6.335a2.629,2.629,0,0,1-2.551-2.759,2.65,2.65,0,0,1,2.551-2.8,2.583,2.583,0,0,1,2.447,2.8A2.561,2.561,0,0,1,86.133,30.238ZM112.4,18.3h-4.816V31.765h2.01v-5.1H112.4a4.189,4.189,0,1,0,0-8.366Zm.052,6.491h-2.858V20.171h2.858a2.309,2.309,0,1,1,0,4.616Zm12.423-1.934a3.772,3.772,0,0,0-3.587,2.062l1.784.745a1.9,1.9,0,0,1,1.836-.987,1.936,1.936,0,0,1,2.114,1.732v.138a4.444,4.444,0,0,0-2.1-.52c-1.924,0-3.881,1.057-3.881,3.033a3.111,3.111,0,0,0,3.344,2.962,2.833,2.833,0,0,0,2.564-1.317h.07v1.041h1.94V26.578C128.963,24.187,127.179,22.854,124.874,22.854Zm-.242,7.381c-.659,0-1.578-.33-1.578-1.143,0-1.039,1.143-1.438,2.132-1.438a3.577,3.577,0,0,1,1.836.451A2.437,2.437,0,0,1,124.632,30.235Zm11.4-7.087-2.3,5.839h-.068l-2.391-5.839H129.1l3.587,8.16-2.045,4.54h2.1l5.527-12.7Zm-18.107,8.616h2.01V18.3h-2.01Z" transform="translate(-13.806 -17.81)" fill="#fff"/>
      <g id="グループ_2448" data-name="グループ 2448">
        <g id="グループ_9" data-name="グループ 9">
          <g id="グループ_8" data-name="グループ 8">
            <path id="パス_108" data-name="パス 108" d="M19.478,16.805a2.172,2.172,0,0,0-.5,1.525v24a2.169,2.169,0,0,0,.5,1.524l.08.078L33,30.487V30.17L19.558,16.727Z" transform="translate(-18.975 -16.375)" fill="#40bff2"/>
            <path id="パス_109" data-name="パス 109" d="M35.079,33.435,30.6,28.953v-.317l4.481-4.481.1.058,5.309,3.017c1.516.862,1.516,2.271,0,3.132l-5.309,3.017Z" transform="translate(-16.573 -14.84)" fill="url(#linear-gradient)"/>
            <path id="パス_110" data-name="パス 110" d="M37.5,32.583,32.915,28,19.392,41.523a1.763,1.763,0,0,0,2.254.066L37.5,32.583" transform="translate(-18.889 -14.045)" fill="url(#linear-gradient-2)"/>
            <path id="パス_111" data-name="パス 111" d="M37.5,25.807,21.646,16.8a1.766,1.766,0,0,0-2.254.066L32.915,30.39Z" transform="translate(-18.889 -16.435)" fill="url(#linear-gradient-3)"/>
          </g>
        </g>
      </g>
      <g id="Layer_3" data-name="Layer 3" transform="translate(33.09 19.552)">
        <g id="グループ_12" data-name="グループ 12">
          <g id="グループ_11" data-name="グループ 11">
            <path id="パス_112" data-name="パス 112" d="M47.885,34.5c.72-.066,2.8-.266,4.815-.444,1.2-.1,2.231-.155,2.962-.188v.887a9.083,9.083,0,0,0-2.153.178A3.843,3.843,0,0,0,51,38.4c0,2.142,2,2.82,3.784,2.885l-.322.931c-2.031-.088-4.349-1.175-4.349-3.628a4.44,4.44,0,0,1,2.042-3.706c-.965.111-3.962.4-5.149.644l-.1-.976C47.329,34.54,47.673,34.519,47.885,34.5Zm7.133,3.14-.566.267a10.241,10.241,0,0,0-.909-1.564l.566-.244A13.2,13.2,0,0,1,55.018,37.635Zm1.265-.477-.577.267a9.879,9.879,0,0,0-.944-1.542l.555-.256A16.971,16.971,0,0,1,56.284,37.159Z" transform="translate(-46.907 -32.588)" fill="#fff" stroke="#fff" stroke-miterlimit="10" stroke-width="0.2"/>
            <path id="パス_113" data-name="パス 113" d="M64.481,39.434H59.933V41.9c0,.589-.178.834-.589.965a8.575,8.575,0,0,1-2.286.145,4.138,4.138,0,0,0-.355-.822c.931.034,1.8.022,2.053.011s.344-.077.344-.311V39.434H54.54v-.809H59.1v-1.8H55.284v-.787H59.1V34.33c-1.22.133-2.475.211-3.618.266a3.684,3.684,0,0,0-.211-.731,36.824,36.824,0,0,0,7.5-.933l.62.655a20.905,20.905,0,0,1-3.461.655v1.8H63.86v.787H59.933v1.8h4.548Z" transform="translate(-44.087 -32.932)" fill="#fff" stroke="#fff" stroke-miterlimit="10" stroke-width="0.2"/>
            <path id="パス_114" data-name="パス 114" d="M64.692,33.641c-.066.189-.166.545-.211.745a25.244,25.244,0,0,0-.533,4.2,11.658,11.658,0,0,0,.089,1.51c.189-.5.433-1.143.611-1.578l.477.356a24.036,24.036,0,0,0-.776,2.464,2.763,2.763,0,0,0-.055.488l.033.389-.8.055a13.76,13.76,0,0,1-.4-3.528,30.6,30.6,0,0,1,.488-4.405,6.371,6.371,0,0,0,.078-.776ZM67.2,38.968a4.07,4.07,0,0,0-.145,1.009c0,.5.333.989,1.842.989a11.931,11.931,0,0,0,2.718-.289l.011.931a14.5,14.5,0,0,1-2.74.222c-1.842,0-2.664-.609-2.664-1.642a6.355,6.355,0,0,1,.178-1.3Zm-.434-4.482a19.305,19.305,0,0,0,4.516,0v.909a27.785,27.785,0,0,1-4.5,0Z" transform="translate(-40.914 -32.699)" fill="#fff" stroke="#fff" stroke-miterlimit="10" stroke-width="0.2"/>
            <path id="パス_115" data-name="パス 115" d="M76.021,33.41a9.5,9.5,0,0,0,4.6,8.733,3.918,3.918,0,0,0-.666.687,9.574,9.574,0,0,1-4.405-6.18,9.8,9.8,0,0,1-4.427,6.191,5.365,5.365,0,0,0-.742-.655c2.451-1.276,3.817-3.507,4.493-6.613l.489.078c-.078-.511-.123-1-.145-1.42H72.492V33.41Z" transform="translate(-38.234 -32.755)" fill="#fff" stroke="#fff" stroke-miterlimit="10" stroke-width="0.2"/>
            <path id="パス_116" data-name="パス 116" d="M88.477,41.177a2.813,2.813,0,0,1-2.02.922c-.722,0-1.22-.489-1.22-1.4,0-1.22.409-3.028.409-4.093a.782.782,0,0,0-.876-.9c-.887,0-2.218,1.031-3.229,2.12-.021.466-.031.9-.031,1.286,0,1,0,1.665.042,2.651.012.189.034.467.058.666h-.965c.011-.155.031-.477.031-.653.011-1.054.011-1.6.034-2.818,0-.111.011-.256.011-.422-.533.811-1.254,1.864-1.786,2.6l-.556-.766c.611-.766,1.876-2.475,2.431-3.34.022-.355.045-.711.066-1.054-.5.056-1.453.189-2.14.278l-.089-.922a4.908,4.908,0,0,0,.72-.011c.355-.022,1-.088,1.565-.177.033-.523.055-.911.055-1.033a4.119,4.119,0,0,0-.044-.822L82,33.322c-.056.266-.145.887-.222,1.653l.055-.022.322.389c-.133.2-.322.5-.488.766-.023.2-.034.409-.055.62.853-.787,2.262-1.842,3.361-1.842a1.377,1.377,0,0,1,1.553,1.476c0,1.1-.411,3-.411,4.106,0,.377.178.666.567.666a2.414,2.414,0,0,0,1.653-.911Z" transform="translate(-35.28 -32.8)" fill="#fff" stroke="#fff" stroke-miterlimit="10" stroke-width="0.2"/>
            <path id="パス_117" data-name="パス 117" d="M91.483,36.457c0,.72.055,1.786.111,2.74a8.73,8.73,0,0,1,3.417,1.875l-.533.822a7.657,7.657,0,0,0-2.851-1.808c.011.288.022.531.022.731,0,.9-.555,1.675-2.02,1.675C88.121,42.492,87,42,87,40.752c0-.989.867-1.809,2.764-1.809a6.454,6.454,0,0,1,.931.067c-.044-.889-.088-1.9-.088-2.553,0-.633,0-1.542-.012-2.008a8.168,8.168,0,0,0-.088-1.089h1.065a9.377,9.377,0,0,0-.089,1.089c-.011.3,0,.687,0,1.12.876-.023,2.262-.078,3.251-.211l.033.842c-.976.089-2.386.156-3.284.179Zm-.755,3.384a4.978,4.978,0,0,0-1.076-.111c-1.133,0-1.775.388-1.775.987s.609.944,1.664.944c.809,0,1.2-.378,1.2-1.131C90.739,40.352,90.728,40.118,90.728,39.841Z" transform="translate(-32.096 -32.774)" fill="#fff" stroke="#fff" stroke-miterlimit="10" stroke-width="0.2"/>
            <path id="パス_118" data-name="パス 118" d="M98.8,36.743a10.224,10.224,0,0,0-3,.566c-.333.089-.655.22-.92.32l-.278-1.02c.3-.033.676-.1,1-.166a14.619,14.619,0,0,1,3.285-.533,2.436,2.436,0,0,1,2.728,2.442c0,2.386-2.118,3.739-4.971,4.16l-.52-.844c2.664-.333,4.549-1.376,4.549-3.351A1.657,1.657,0,0,0,98.8,36.743Zm1.94-2.863-.131.855c-1.223-.078-3.44-.3-4.683-.522l.144-.844A29.383,29.383,0,0,0,100.742,33.88Z" transform="translate(-29.285 -32.771)" fill="#fff" stroke="#fff" stroke-miterlimit="10" stroke-width="0.2"/>
          </g>
        </g>
      </g>
    </g>
  </g>
</svg>
