<svg xmlns="http://www.w3.org/2000/svg" xmlns:xlink="http://www.w3.org/1999/xlink" width="32" height="32" viewBox="0 0 32 32"><defs><radialGradient id="a" cx="0.198" cy="0.974" r="1.29" gradientUnits="objectBoundingBox"><stop offset="0" stop-color="#fcee21"/><stop offset="0.044" stop-color="#fbe621"/><stop offset="0.11" stop-color="#f9d221"/><stop offset="0.189" stop-color="#f7b222"/><stop offset="0.277" stop-color="#f48423"/><stop offset="0.35" stop-color="#f15a24"/><stop offset="0.5" stop-color="#d4145a"/><stop offset="0.8" stop-color="#93278f"/><stop offset="1" stop-color="#93278f"/></radialGradient></defs><circle cx="16" cy="16" r="16" fill="#fff"/><circle cx="16" cy="16" r="16" fill="url(#a)"/><g transform="translate(5.333 5.333)"><path d="M215.644,200h-9.956A5.706,5.706,0,0,0,200,205.689v9.956a5.706,5.706,0,0,0,5.689,5.689h9.956a5.706,5.706,0,0,0,5.689-5.689v-9.956A5.706,5.706,0,0,0,215.644,200Zm3.911,15.052a4.517,4.517,0,0,1-4.5,4.5h-8.77a4.517,4.517,0,0,1-4.5-4.5v-8.77a4.517,4.517,0,0,1,4.5-4.5h8.77a4.517,4.517,0,0,1,4.5,4.5Z" transform="translate(-200 -200)" fill="#fff"/><path d="M334.666,328.571a6.1,6.1,0,1,0,6.1,6.1A6.1,6.1,0,0,0,334.666,328.571Zm0,9.986a3.891,3.891,0,1,1,3.891-3.891A3.891,3.891,0,0,1,334.666,338.557Z" transform="translate(-324 -324)" fill="#fff"/><circle cx="1.219" cy="1.219" r="1.219" transform="translate(15.543 3.352)" fill="#fff"/></g></svg>